<?xml version="1.0" encoding="UTF-8"?><svg id="a" xmlns="http://www.w3.org/2000/svg" viewBox="0 0 466.2 336.23"><defs><style>.b{fill:#000;}.b,.c,.d{stroke-width:0px;}.c{fill:#fff;}.d{fill:#202020;}</style></defs><path class="d" d="M233.73,335.82c.2-.1.08-.26-.42-.29h-.01c-.08-.01-.13,0-.2,0-.07,0-.12,0-.2,0h-.01c-.5.04-.62.2-.42.3l-.23.16.86-.08.86.08-.23-.16Z"/><path class="d" d="M238.83,335.03c.08.08.42.21.07.31-1.62-.3-3.17-.29-4.39.06.5.29,1.63.07,1.96.19-.16-.17.54-.37,1.48-.31,1.18.53,1.44.35,2.53.79.72-.42-.56-.81-1.66-1.04Z"/><path class="d" d="M251.44,336.06c-.26-.02-.51-.03-.78-.05.24.06.51.1.83.12-.02-.03-.04-.05-.05-.07Z"/><path class="d" d="M252.03.58s.02-.04,0-.07c-.15,0-.12.02,0,.07Z"/><path class="d" d="M252.78,336.08c-.27,0-.53,0-.79,0,.19.01.43.02.79,0Z"/><path class="d" d="M301.04,7.66c.2-.08.44-.15.82-.17-2.87-.68-.51-.04-.82.17Z"/><path class="d" d="M251.5,335.91c-.12.03-.11.09-.06.15.18,0,.36.01.55.02-.25-.02-.39-.07-.49-.17Z"/><path class="d" d="M448.42,257.81c.45-.83.91-1.69,1.22-2.36l-1.22,2.36Z"/><path class="d" d="M407.65,58l.43.43c-.09-.14-.24-.29-.43-.43Z"/><path class="d" d="M453.76,246.68c-.07.05-.14.15-.22.24-.16.49-.29.99-.36,1.48l.58-1.72Z"/><path class="d" d="M242.81,335.34l.3-.03c-.15,0-.24.01-.3.03Z"/><path class="d" d="M457.74,237.07c.04-.09.09-.19.12-.26-.04.07-.08.16-.12.26Z"/><path class="d" d="M466.11,185.73c-.23-5.03-.49-10.01-.84-14.84.07-.72.2.39.41.5-.14-.84-.54-1.04-.41-2.2l.27.23c-.5-2.18-.88-5.34-1.22-8.38-.47-3.01-.89-5.9-1.78-7.39-.46-4.23-1.79-6.97-2.57-12.07-.66-1.5.11,1.92-.55-.16-.32-1.55-.61-3.12-.96-4.68l.04.26c-.66-4.63-4.64-11.22-6.41-16.68l.06.24c-.1.19-.75-.83-1.08-1.69-.02-.34.29.2.65.65-.92-2.4-1.49-3.86-2.03-5.18-.58-1.31-1.14-2.48-2.01-4.31.54,1.69-.91-1.36-1.31-1.35-.3-1.05.62.37-.33-1.81-.79-1.49-1.59-2.91-2.44-4.21-.86-1.29-1.68-2.53-2.45-3.7-.28-1.16-1.18-2.36-.88-2.63-.99-1.64-1.77-2.91-2.6-4.28-.87-1.34-1.8-2.78-3.12-4.72l-.18-.02c-.35-1.3-2.61-3.14-2.9-4.01-.06.21.18.65,0,.63-.38-.6-.75-1.22-1.15-1.8.49.89.47,1.62-.63.27-.86-1.64.5.25.17-.61l-.7-.16c-.81-1.11-.65-1.73.5-.49-1.47-1.84-2.84-3.73-4.31-5.46-1.43-1.76-2.84-3.47-4.3-4.97l.08.53c-.74-.89-1.64-1.91-2.5-2.82-.88-.88-1.72-1.63-2.29-2.03.02-.1-.27-.62.06-.43-1.5-2.04-.74-.29-1.93-1.76.34.43.63.83.61.98-1.21-1.45-2.54-2.78-3.81-4.17-.1.06-.85-.41-1.78-1.11-.95-.68-2.1-1.57-2.93-2.43.01-.15.64.17,1.11.55l-1.08-1.09-1.22-.38c-.45-.61-.92-1.19-1.41-1.75l-.3.3c-1.22-1.07-1.38-1.9-2.43-2.68-4.04-2.83-3.32-2.12-6.33-3.92.16-.88-4.56-3.15-4.95-4.14-2.09-1.08-4.43-2.7-7.05-4.23-2.59-1.57-5.26-3.36-7.96-4.8l.4.3c-2.47-.92-2.3-1.96-4.85-3.16l.56.44c-1.7-.66-3.86-1.88-6.01-3.08-2.18-1.14-4.3-2.37-5.77-3.26.58.41.15.5-.84,0-.77-.55,1.06-.13-.76-.83.4.28-.02.28-.42.09l-1.55-1.19c-2.34-.88-4.91-1.77-7.46-2.76-1.28-.49-2.55-1-3.8-1.53-1.27-.47-2.51-.95-3.71-1.45-.95-.19-.34.19-.18.39-3.81-1.48-7.5-3.26-11.03-4.38l-.5.34c-1.72-.55-.85-1.03-3.22-1.34-.52-.1,1.48.5,2.03.89-3.57-.75-1.91-1.09-5.24-2.08l.71.78c-2.62-.5-2.84-1.09-3.68-1.67-3.45-1.58-2.84.3-7.61-1.48-.71-.46.35-.31-.36-.77-3.51-.72-3.85-1.14-7.37-1.82-2.04.35,1.78.4-.41.67l2.69.43c-2.38-.11,2.06.58,1.59.95-1.74-.26-4.26-1.24-6.46-1.9-.08.35,2.59.63,1.45.87l-1.11-.4c.29.17.32.32.99.46-.48.23-1.35-.29-2.44-.54-.04-.2.07-.44.49-.61-.05.03-.14.05-.32.06-2.13-1.04-6.05-1.29-7.91-2.08.29.16.02.14-.1.21-1.37-.24-2.7-.96-4.52-1.44-1.05.08.45.85-2.48.26-.48-.37.92-.68-1.57-1.04,0,0,2.13.56.94.59-2.4-.57-.81-.02-3.07-.03-1.21-.6-2.45-.22-2.62-.93-.85.33-.62.19-2.19.29.36-.13-.35-.33-1.13-.55-.79-.19-1.65-.4-1.57-.61-.69.43,2.52.91.45,1.2-1.33-.49-3.87-.9-4.02-1.47-1.07,0-1.57.15-3.22.01.26,0,.57.14.73.21-2.87-.75-7.22-.73-8.82-1.5.53.83-6.23-.4-4.05.51-1.22-.12-3.12-.62-3.53-.76.09.62-3.05.01-4.4.31-.67-.38-2.87-.36-4.19-.63.59.1.9.22.69.38-1.49-.32-1.12-.06-2.41.17-2.02-.26.39-.47-.83-.78-1.76.11-.28.38-.6.63l-2.6-.66c-.53.05-.91.16-1.13.33-.77-.17-1.5-.37-2.49-.25-.05,0-.1-.01-.16-.02l-.81.13-.81-.13c-.06,0-.1.01-.16.02-.99-.11-1.72.09-2.49.25-.22-.16-.59-.27-1.13-.33l-2.6.66c-.33-.25,1.16-.52-.6-.63-1.22.32,1.19.53-.83.78-1.28-.23-.92-.49-2.41-.17-.22-.16.1-.28.69-.38-1.33.26-3.52.25-4.19.63-1.35-.3-4.49.31-4.4-.31-.41.14-2.31.64-3.53.76,2.18-.91-4.57.32-4.05-.51-1.6.78-5.95.75-8.82,1.5.16-.07.47-.21.73-.21-1.65.13-2.15,0-3.22-.01-.15.56-2.69.98-4.02,1.47-2.08-.29,1.14-.77.45-1.2.08.21-.78.42-1.57.61-.79.22-1.5.42-1.13.55-1.58-.09-1.34.04-2.19-.29-.17.71-1.41.33-2.62.93-2.27,0-.67-.54-3.07.03-1.19-.03.94-.59.94-.59-2.49.36-1.09.67-1.57,1.04-2.93.59-1.43-.18-2.48-.26-1.82.48-3.14,1.21-4.52,1.44-.12-.06-.39-.04-.1-.21-1.86.79-5.78,1.05-7.91,2.08-.18,0-.27-.03-.32-.06.42.17.53.41.49.61-1.09.26-1.96.78-2.44.54.67-.14.7-.29.99-.46l-1.11.4c-1.14-.24,1.53-.52,1.45-.87-2.21.66-4.72,1.64-6.46,1.9-.47-.38,3.97-1.07,1.59-.95l2.69-.43c-2.19-.26,1.63-.32-.41-.67-3.53.68-3.87,1.09-7.37,1.82-.71.46.35.31-.36.77-4.78,1.78-4.17-.1-7.61,1.48-.84.58-1.06,1.17-3.68,1.67l.71-.78c-3.33,1-1.67,1.33-5.24,2.08.55-.39,2.55-.99,2.03-.89-2.37.31-1.5.79-3.22,1.34l-.5-.34c-3.53,1.12-7.22,2.9-11.03,4.38.16-.21.77-.59-.18-.39-1.19.5-2.44.98-3.71,1.45-1.25.53-2.52,1.04-3.8,1.53-2.55.99-5.12,1.89-7.46,2.76l-1.55,1.19c-.4.19-.82.19-.42-.09-1.82.7.02.28-.76.83-.98.5-1.42.42-.84,0-1.47.9-3.59,2.12-5.77,3.26-2.15,1.2-4.32,2.42-6.01,3.08l.56-.44c-2.55,1.2-2.38,2.25-4.85,3.16l.4-.3c-2.69,1.43-5.36,3.23-7.96,4.8-2.62,1.53-4.96,3.15-7.05,4.23-.39.99-5.11,3.25-4.95,4.14-3.01,1.8-2.29,1.09-6.33,3.92-1.06.79-1.22,1.61-2.43,2.68l-.3-.3c-.49.56-.96,1.14-1.41,1.75l-1.22.38-1.08,1.09c.47-.38,1.1-.7,1.11-.55-.83.86-1.98,1.75-2.93,2.43-.93.7-1.69,1.17-1.78,1.11-1.28,1.39-2.6,2.72-3.81,4.17-.02-.15.28-.55.61-.98-1.2,1.48-.43-.28-1.93,1.76.33-.2.04.32.06.43-.57.4-1.42,1.15-2.29,2.03-.85.9-1.76,1.93-2.5,2.82l.08-.53c-1.47,1.5-2.87,3.21-4.3,4.97-1.47,1.74-2.84,3.63-4.31,5.46,1.15-1.24,1.31-.62.5.49l-.7.16c-.33.87,1.02-1.02.17.61-1.1,1.36-1.13.62-.63-.27-.4.59-.76,1.2-1.15,1.8-.18.02.06-.43,0-.63-.29.87-2.55,2.7-2.9,4.01l-.18.02c-1.32,1.94-2.25,3.38-3.12,4.72-.83,1.37-1.6,2.64-2.6,4.28.3.27-.6,1.47-.88,2.63-.77,1.17-1.59,2.41-2.45,3.7-.85,1.3-1.65,2.72-2.44,4.21-.95,2.19-.04.76-.33,1.81-.41-.02-1.86,3.04-1.31,1.35-.87,1.84-1.43,3.01-2.01,4.31-.54,1.32-1.11,2.78-2.03,5.18.36-.45.67-.99.65-.65-.34.86-.98,1.88-1.08,1.69l.06-.24c-1.77,5.47-5.75,12.05-6.41,16.68l.04-.26c-.35,1.55-.64,3.12-.96,4.68-.66,2.09.1-1.33-.55.16-.78,5.1-2.11,7.84-2.57,12.07-.89,1.49-1.31,4.38-1.78,7.39-.34,3.04-.72,6.2-1.22,8.38l.27-.23c.13,1.16-.27,1.36-.41,2.2.2-.1.34-1.21.41-.5-.35,4.83-.61,9.81-.84,14.84-.11,5.03-.18,10.11.22,15.08.31,3.64,1.39,1.93,1.44,6.53l-.63-1.23c1.45,7.2,2.4,14.84,4.83,21.63-.21-.38-.35-.36-.53-1.04.02,1.57,1.55,5.4,1.82,5.33.3,1.08-.16.32-.08,1.02.24,1.53,1.58,3.5,1.54,4.37,0,.11-.13-.13-.24-.36.51,1.16,1.43,4.02,1.45,3.08.81,2.58,2.05,4.73,2.73,6.78.94,1.11,1.75,4.28,2.5,4.41-.67.11,1.66,4.47,2.78,5.79-.44-.41.54,1.4,0,.94.98,1.69,1.99,3.17,2.09,2.71,1.2,3.49,4.35,5.76,4.74,7.94,1.81,2.27,3.59,4.43,5.43,6.41,1.85,1.98,3.55,4,5.43,5.79-.28.14-1.31-.87-2.23-1.9-.91-1.05-1.79-2.05-1.96-1.75.85.9,1.61,1.71,2.36,2.42.77.7,1.5,1.35,2.22,2,1.43,1.31,2.8,2.67,4.54,4.37.85.93-.71-.3-1.09-.52,3.69,3.26,6.95,6.52,10.58,9-.05.04-.46-.2-.84-.44.69.51,1.53,1.3,1.63,1.02l-.71-.46c-.82-1.16,3.23,1.42,3.48,1.34-.82-.12,0,.58.71,1.24.73.64,1.39,1.21.13.96.5.28,1.16.59,1.16.36.65.53.81.77-.02.46,2.61,1.65,1.89.77,4.17,2.39-.09.11-.58-.17-.9-.21,1.29.62,2.67,1.11,4.58,2.49-.16,0,0,.23-.58-.15,3.42,2.19,6.25,2.98,9.97,5.39-1.44-.08,1.24.87,1.21,1.44l2.19.98-.73-.67c.92.49,1.83.87,2.71,1.24.89.34,1.73.69,2.5,1.15l-1.49-.48,3.58,1.6-1.92-1.13c2.02.67.08-.69,2.52.63-.53-.19,1.87.9,2.76,1.58h0c1.01.26,2.05.51,3.42,1.24.3.31-.52.4-.32.61,1.08.05,4.59,1.7,5.95,1.75-.44-.05-.56.19-.45.29l.92-.02c.86.45.97.56.75.7,2.7,1.07-.65-.9,2.5.51-.27-.06-.16.03-.71-.11,3.22,1.29,6.38,2.01,9.38,3.08.74.78-2.69-.7-1.8.03,4.41,1.31,9.29,2.13,13.56,3.31l-.79-.25c.77-.57,3.13,1.13,5.39,1.32-.55-.07-.79.23-.63.18,1.47.4,3.01.66,4.73.94,1.73.29,3.66.53,5.95.82l-.6.08c1.73.49,4.62.96,6.52,1.32.6-.1,1.68.11,1.06-.27,5.74,2.02,11.33,1.01,16.47,2.49-.63-.07-1.52,0-1.02.05,1.5.13,3,.19,4.5.28-.32-.35-.57-.25-1.49-.59.59-.14,1.86-.16,2.97-.06-2.03.02-.03.51.83.77-.14-.11.17-.19.11-.3,2.29.78.45-.59,3.61.04l-.18.15c1.2,0,2.32-.13,3.61.01.51.41-1.29.08-1.39.37,1.82.13,3.63-.43,5.25.02-.78.06-1.89,0-2.66.05,1.76.54,1.98.45,3.3.59l-.13-.02,3.07.38-.78-.17c2.32-.82,4.64.05,7.73-.43-3,.46-.51.32-.75.73.78.16,1.96.33,1.62.44,1.46-.29,2.41.35,4.47-.08.09.14,1.55.07,1.21.39,1.89-.04-.44-.25-.27-.41,2.91-.38,6.82.75,11.01.17,3.32-.19,4.18-.58,6.89-.8.31,0,.62,0,.93,0,.53.21-1.14.42-1.14.42,1.82.21,3.19.19,4.9.04-.35.12,0,.22.53.37,1.38-.03.92-.49,2.74-.29-.31.15-.71.39-1.38.54,1.62-.12,3.22-.37,4.9-.49.45.24-1.01.36-1.6.51,1.89-.1,4.89-.22,5.47-.59l-.91-.1c.23.08-.05.3-.45.36-1.62.29-2.33-.13-2.42-.26l1.19-.09c-1.23-.79-4.8.12-7.21.07l.82-.47c5.93.02,11.86,0,17.78-.02,5.92.02,11.85.04,17.78.02l.82.47c-2.41.05-5.98-.86-7.21-.07l1.19.09c-.09.14-.81.56-2.42.26-.4-.05-.68-.27-.45-.36l-.91.1c.58.37,3.58.49,5.47.59-.59-.15-2.05-.27-1.6-.51,1.68.12,3.28.37,4.9.49-.66-.15-1.06-.39-1.38-.54,1.81-.2,1.36.25,2.74.29.52-.15.88-.25.53-.37,1.71.15,3.08.17,4.9-.04,0,0-1.67-.21-1.14-.42.31,0,.62,0,.93,0,2.72.22,3.57.61,6.89.8,4.19.58,8.09-.55,11.01-.17.16.16-2.16.37-.27.41-.34-.33,1.13-.26,1.21-.39,2.06.43,3.01-.21,4.47.08-.34-.1.84-.28,1.62-.44-.25-.41,2.25-.27-.75-.73,3.09.48,5.41-.39,7.73.43l-.78.17,3.07-.38-.13.02c1.33-.15,1.54-.05,3.3-.59-.78-.05-1.89,0-2.66-.05,1.62-.46,3.43.1,5.25-.02-.1-.3-1.9.04-1.39-.37,1.29-.15,2.41,0,3.61-.01l-.18-.15c3.17-.63,1.32.75,3.61-.04-.06.11.24.19.11.3.86-.26,2.86-.75.83-.77,1.11-.1,2.39-.08,2.97.06-.92.34-1.16.23-1.49.59,1.5-.09,3-.15,4.5-.28.5-.06-.39-.12-1.02-.05,5.14-1.47,10.74-.46,16.47-2.49-.62.38.47.17,1.06.27,1.9-.36,4.79-.83,6.52-1.32l-.6-.08c2.29-.29,4.22-.53,5.95-.82,1.73-.28,3.27-.54,4.73-.94.16.04-.08-.26-.63-.18,2.26-.19,4.62-1.89,5.39-1.32l-.79.25c4.28-1.17,9.15-1.99,13.56-3.31.89-.74-2.54.74-1.8-.03,3-1.07,6.16-1.79,9.38-3.08-.55.14-.45.04-.71.11,3.15-1.41-.2.56,2.5-.51-.22-.15-.11-.25.75-.7l.92.02c.11-.1,0-.35-.45-.29,1.36-.04,4.87-1.7,5.95-1.75.2-.2-.62-.29-.32-.61,1.36-.73,2.4-.99,3.42-1.24h0c.89-.68,3.29-1.77,2.76-1.58,2.44-1.32.5.03,2.52-.63l-1.92,1.13,3.58-1.6-1.49.48c.77-.46,1.62-.81,2.5-1.15.88-.37,1.79-.75,2.71-1.24l-.73.67,2.19-.98c-.03-.57,2.65-1.53,1.21-1.44,3.72-2.41,6.56-3.2,9.97-5.39-.59.38-.42.14-.58.15,1.91-1.38,3.29-1.87,4.58-2.49-.33.03-.82.31-.9.21,2.28-1.61,1.55-.73,4.17-2.39-.82.32-.67.07-.02-.46,0,.23.67-.07,1.16-.36-1.26.25-.6-.32.13-.96.72-.66,1.53-1.36.71-1.24.25.08,4.3-2.5,3.48-1.34l-.71.46c.1.28.93-.51,1.63-1.02-.38.24-.79.48-.84.44,3.63-2.47,6.89-5.74,10.58-9-.39.22-1.95,1.45-1.09.52,1.74-1.71,3.11-3.06,4.54-4.37.72-.65,1.45-1.31,2.22-2,.76-.72,1.51-1.52,2.36-2.42-.18-.3-1.06.71-1.96,1.75-.93,1.03-1.95,2.04-2.23,1.9,1.88-1.79,3.57-3.81,5.43-5.79,1.85-1.99,3.62-4.15,5.43-6.41.38-2.18,3.53-4.45,4.74-7.94.11.46,1.12-1.02,2.09-2.71-.55.46.43-1.35,0-.94,1.12-1.33,3.45-5.69,2.78-5.79.75-.13,1.56-3.3,2.5-4.41.68-2.05,1.93-4.2,2.73-6.78.02.94.95-1.92,1.45-3.08-.11.23-.23.47-.24.36-.04-.87,1.3-2.84,1.54-4.37.07-.7-.39.06-.08-1.02.27.06,1.81-3.76,1.82-5.33-.18.68-.31.65-.53,1.04,2.42-6.79,3.37-14.44,4.83-21.63l-.63,1.23c.05-4.6,1.13-2.89,1.44-6.53.39-4.97.33-10.05.22-15.08ZM343.11,20.37c.74.26,1.44.53,1.99.76-.71-.2-1.83-.52-1.61-.34-.47-.16-.59-.36-.38-.42ZM340.5,19.39h0c-.57-.22-.89-.34-1.12-.44.26.1.66.25,1.13.44ZM235.82.19l-.3.1c-.2-.04-.45-.09-.72-.13l1.02.02ZM231.4.17c-.27.04-.52.08-.72.13l-.3-.1,1.02-.02ZM126.82,18.95c-.23.09-.56.22-1.12.44h0c.47-.19.87-.34,1.13-.44ZM123.09,20.37c.21.07.09.26-.38.42.22-.18-.9.14-1.61.34.55-.23,1.25-.5,1.99-.76ZM150.95,332.03c-.05-.1-.09-.23-.02-.34.54.07,1.09.12,1.63.19-.13.12-.57.19-1.61.15ZM200.15,335.14l-.65-.34c.65.01,1.3.02,1.95.03-.15.09-.51.2-1.3.31ZM213.04,335.32c-.32-.09-.57-.25-.46-.37.79,0,1.58,0,2.37,0l-1.92.37ZM253.16,335.32l-1.92-.37c.79,0,1.58,0,2.37,0,.11.13-.14.28-.46.37ZM264.74,334.83c.65-.01,1.3-.02,1.95-.03l-.65.34c-.8-.11-1.15-.22-1.3-.31ZM315.24,332.03c-1.04.04-1.48-.03-1.61-.15.54-.06,1.09-.12,1.63-.19.07.1.03.23-.02.34Z"/><path class="d" d="M414.45,64.18c-.14-.19-.29-.37-.43-.55.17.23.31.4.43.55Z"/><polygon class="d" points="403.66 54.45 403.95 54.78 404.02 54.71 403.66 54.45"/><path class="d" d="M302.96,333.76c-.18.06-.33.11-.34.13.2-.05.3-.09.34-.13Z"/><path class="d" d="M291.32,334.7c-.41.05-.93.12-1.64.24l1.64-.24Z"/><path class="d" d="M282.37,335.36l-.17-.16s-.01,0-.02,0c.03.05.07.1.18.16Z"/><path class="d" d="M417.29,293.9c-.09.06-.19.13-.29.2.52-.32.98-.65.29-.2Z"/><path class="d" d="M381.42,314.9c-.45.15-.89.26-1.33.37.11.19.65-.05,1.33-.37Z"/><path class="d" d="M448.42,257.81c-.05.09-.09.17-.14.26h0s.13-.26.13-.26Z"/><path class="d" d="M381.42,314.9c.57-.17,1.14-.45,1.79-.84-.59.21-1.23.58-1.79.84Z"/><path class="d" d="M243.06,336.19l.43-.02-.48-.05s.06.04.05.06Z"/><path class="d" d="M243.01,336.13c-.07-.04-.26-.05-.48-.05l.48.05Z"/><path class="d" d="M242.53,336.08l-1.01-.1c.23.11.66.1,1.01.1Z"/><path class="d" d="M255.5,336.11l.11.11c1.2.08,2.5-.2,3.36-.24-.82-.23-2.91.33-3.47.13Z"/><path class="d" d="M361.88,322.84c.37-.19.73-.38,1.09-.59-.58.17-1.17.31-1.75.45l.66.14Z"/><path class="d" d="M227.3,335.33c-.35-.1-.01-.22.07-.31-1.1.23-2.38.62-1.66,1.04,1.09-.44,1.36-.26,2.53-.79.94-.06,1.64.14,1.48.31.33-.12,1.46.1,1.96-.19-1.22-.35-2.77-.36-4.39-.06Z"/><path class="d" d="M214.71,336.13c.32-.02.58-.06.83-.12-.26.02-.51.03-.78.05-.01.02-.03.05-.05.07Z"/><path class="d" d="M214.16.51s0,.04,0,.07c.11-.04.14-.07,0-.07Z"/><path class="d" d="M214.21,336.08c-.26,0-.52,0-.79,0,.36.01.6.01.79,0Z"/><path class="d" d="M164.33,7.49c.38.03.62.09.82.17-.31-.21,2.05-.85-.82-.17Z"/><path class="d" d="M214.7,335.91c-.1.1-.24.15-.49.17.19,0,.37-.01.55-.02.05-.06.06-.11-.06-.15Z"/><path class="d" d="M17.78,257.81l-1.22-2.36c.32.67.77,1.53,1.22,2.36Z"/><path class="d" d="M58.12,58.44l.43-.43c-.18.15-.34.3-.43.43Z"/><path class="d" d="M12.43,246.68l.58,1.72c-.08-.49-.2-.98-.36-1.48-.07-.09-.15-.19-.22-.24Z"/><path class="d" d="M8.46,237.07c-.04-.1-.09-.19-.12-.26.03.07.08.17.12.26Z"/><path class="d" d="M223.39,335.34c-.06-.02-.15-.04-.3-.03l.3.03Z"/><path class="d" d="M51.75,64.18c.12-.15.26-.33.43-.55-.14.18-.28.37-.43.55Z"/><polygon class="d" points="62.18 54.71 62.25 54.78 62.53 54.45 62.18 54.71"/><path class="d" d="M163.24,333.76s.15.08.34.13c-.01-.03-.16-.08-.34-.13Z"/><path class="d" d="M174.87,334.7l1.64.24c-.71-.12-1.23-.19-1.64-.24Z"/><path class="d" d="M183.83,335.36c.12-.06.15-.11.18-.16,0,0-.02,0-.02,0l-.17.16Z"/><path class="d" d="M49.19,294.1c-.1-.07-.2-.14-.29-.2-.69-.45-.24-.12.29.2Z"/><path class="d" d="M86.11,315.27c-.44-.11-.88-.23-1.33-.37.68.33,1.22.57,1.33.37Z"/><path class="d" d="M17.91,258.07h0c-.05-.09-.09-.17-.14-.26l.13.26Z"/><path class="d" d="M84.78,314.9c-.56-.26-1.2-.63-1.79-.84.65.39,1.22.67,1.79.84Z"/><path class="d" d="M223.13,336.19s.02-.05.05-.06l-.48.05.43.02Z"/><path class="d" d="M223.66,336.08c-.22,0-.41,0-.48.05l.48-.05Z"/><path class="d" d="M224.67,335.98l-1.01.1c.35,0,.78.01,1.01-.1Z"/><path class="d" d="M207.22,335.98c.86.04,2.16.32,3.36.24l.11-.11c-.57.21-2.65-.36-3.47-.13Z"/><path class="d" d="M104.31,322.84l.66-.14c-.58-.15-1.17-.28-1.75-.45.36.21.73.4,1.09.59Z"/><path class="c" d="M312.41,220.19s.09.1.32.16c.06-.03-.11-.09-.32-.16Z"/><path class="c" d="M317.67,220.89c.1.01.2.02.31.04-.06-.05-.18-.05-.31-.04Z"/><path class="c" d="M283.13,216.91l-.83.09c.4,0,.87.06.83-.09Z"/><path class="c" d="M268.41,215.76c.06.07.13.14.2.19h.25s-.45-.19-.45-.19Z"/><path class="c" d="M258.52,215.64c-.08.11-.11.2-.11.27.2.03.38.11.51.27-.09-.17-.16-.56-.4-.55Z"/><path class="c" d="M327.39,222.88s.02,0,.04,0c-.14-.07-.28-.12-.04,0Z"/><path class="c" d="M379.64,285.09c.02-1.3-.72.13-.84-.05.09,1.59.69-1.03.84.05Z"/><path class="c" d="M347.8,231.27c.11,0,.21-.01.28-.05-.19,0-.26.02-.28.05Z"/><path class="c" d="M355.35,235.87c.25.08.36.18.42.29.04,0,.07.01.1,0-.23-.21-.32-.2-.53-.3Z"/><path class="c" d="M362.34,240.72c.07.06.15.13.21.19.06.01.12.03.18.04l-.39-.23Z"/><path class="c" d="M380.38,274.88c-.46-.54-.57-1.86-.7-3.01-.11-1.16-.42-2.11-.9-1.9-.25-1.47-.22-2.71-.07-3.7.16.28.12.68.14.99.17-.44-.23-2.23-.42-2.97,0,1.04.21,2.64-.03,3.47-.19-1.34-.29-3.28-.35-4.07l-.64-.17c.02-1.21-.73-.77-.58-2.03l.22.15c-.69-2-.28-2.19-.98-4.06l-.16.17c-.33-.59-.29-1.74-1.07-2.1.19.39.41.76.57,1.16-.37.03-1.01-.75-1.38-1.05-.54-1.24.33-.71.05-1.34-.45-.08-.2.03-.29.61-.54-1.43-1.56-3.19-1.77-4.37-.08-.03-.11.08-.11.08-.91-1.29-1.34-2.75-2.16-3.36l.15.28c-1.14-.69-1.87-2.8-2.68-2.4-.53-.32.96.97-.02.57-1.47-1.17-.31-1.45-1.73-2.38.19.13.1.12.1.23-.89-.82-2.03-1.96-3.04-2.79-1.7-.41-3.9-3.07-5.93-3.34.66.06-.2-.54-.13-.66,0,0,.02.11-.07.12-.58-.34-.5-.63-.65-.87-.6-.09-1.45-1.22-1.85-1.24.09-.17-.41-.4-.93-.7.94.79.13.55.45,1.08-1.6-.81-1.36-1.78-3.1-2.52l-1.08-.17c.07-.6-1.58-1.19-1.46-1.34-.37.01-.83-.1-.89.17-.62-.45-1.74-.68-1.89-1.11l.73.2c-2.19-.79-3.14-2.08-4.94-2.44l-.28.77c-1.22-.13-1.85-1.26-2.99-1.17.43-.13.48-.03-.13-.54.44.1,1.14.61,1.83.89l-1.3-1.05,2.22,1.15c-.86-.7-.83-.6-.3-.74-1.31-.82-1.66-.26-2.9-1.06-.53-.08-.13.39-.75.33-1.1-.73-2.49-.3-3.21-.99-.31-.02.49.19.36.35-.76-.34-1.33-.5-1.48-.81l.7.15c-.6-.18-.59-.53-1.77-.73-.6-.38-.85-.89-.13-.67-.27-.14-.98-.13-.83.18-1.78-.54-.59-1.1-2.42-1.26.11.06.22.14.15.16-.45-.07-.81-.17-1.09-.3,1.51.51-.66.49,1.18.87-.32.35-1.39-.31-2.01-.31-.8-.53.07-.63-.31-.96-.03.13-.39.03-.84-.04l.51-.2c-.37-.1-.73-.2-1.15-.4l.7.34c-.81-.18-2.16.04-3.48-.64.34.23,1.01.67.04.6-1.48-.59-.39.04-1.31.07-1.51-.42-.13-.63-2.44-.95-.24-.05.02-.19.29-.22-1.57-.21-2.38-.58-3.93-.66.67.05,1.21.04.35-.29.33.35-1.28-.01-1.9.06l-.12-.19c-.5.09-.01.25.36.38,0-.06.14-.08.42-.02.72.28.33.83-.85.68-1.23-.38-.95-.77-.7-.9-1.72-.13-1.46-1.04-3.12-1.03-.37-.06-1.7.41-2.89.29-.55-.47,1.5-.05.87-.48-2.08.61-3.94-1.13-6.59-.92l.27.5c-.6-.04-1.19-.08-1.86-.2l.91-.15c-.59-.17-2-.24-1.58.16-1.31-.52-1.62-.35-2.89-.36,1.34.1.03-.06.98.28-1.42.07-1.51-.08-2.47-.28.14.18-.39.38-.76.34-.88-.38-2.43-.48-3.69-.72v.14c-2.12-.35-4.47.1-6.59-.43-.04,0-.07-.02-.11-.02l.17-.02c.77-.39-1.64-.42-2.29-.64-.15.1-.23.29-.6.27,0-.41-.82-.26-1.11-.46-.75.1.07.49-1.2.41-.49-.06-.53-.28-.47-.43-.28.19-1.09.31-1.76.33.22.12.59,0,.74.03.07.22-.37.12-.37.39-.59,0-.22-.39-.97-.28l.67.35c-.3.07-.67-.08-.82-.11.23.05.32.16.34.28-.29-.01-.57-.02-.86-.04-.12-.29.49-.63.44-.88-1.64.19-2.9-.29-4.17-.36l.23.39c-.61-.08-.91-.17-1.13-.34l-.95-.03c.54.15.72.28.75.58-1.01-.14-2.4-.08-2.65-.6l.04.09c-1.35.13-4.17.2-4.08.36-1.44-.2-3.28.06-3.32-.44-.86-.13-2.24.63-2.85-.01-1.03.32-.06.14.25.51-1.02.32-2.06-.54-2.4.19-1.19-.23.28-.15-.12-.47-.26.67-2.22.1-3.34.48-.5-.28.51-.17-.35-.46.09.17-.37.2-.61.22l-.22-.42-.78.72c-.35,0-.7,0-1.05,0-.24-.28.47-.45-1.21-.59l.14.03c-.61.44-1.61-.32-3.23.03.56-.09.23.2.41.32l-.91-.16c.08.02.12.05.03.1-.79.33-.69-.17-1.61.13.25.03.35.1.39.18-.42,0-.83,0-1.25.01l-.3-.1.1.11c-2.15.03-4.27.06-6.39.11-2.11-.04-4.24-.08-6.39-.11l.1-.11-.3.1c-.41,0-.83,0-1.25-.01.04-.08.14-.15.39-.18-.92-.29-.82.2-1.61-.13-.09-.05-.05-.08.03-.1l-.91.16c.18-.12-.15-.41.41-.32-1.62-.35-2.62.41-3.23-.03l.14-.03c-1.69.14-.97.31-1.21.59-.35,0-.7,0-1.05,0l-.78-.72-.22.42c-.23-.02-.69-.05-.61-.22-.87.29.15.18-.35.46-1.12-.38-3.08.19-3.34-.48-.4.32,1.07.25-.12.47-.35-.73-1.38.13-2.4-.19.31-.38,1.28-.19.25-.51-.61.64-1.99-.12-2.85.01-.03.5-1.87.23-3.32.44.09-.17-2.73-.23-4.08-.36l.04-.09c-.25.52-1.64.46-2.65.6.03-.31.21-.43.75-.58l-.95.03c-.22.17-.51.26-1.13.34l.23-.39c-1.27.07-2.53.55-4.17.36-.05.24.56.59.44.88-.29.01-.57.02-.86.04.02-.12.11-.23.34-.28-.15.03-.52.18-.82.11l.67-.35c-.75-.11-.38.28-.97.28,0-.27-.45-.17-.37-.39.15-.03.52.08.74-.03-.67-.02-1.49-.13-1.76-.33.07.15.02.37-.47.43-1.26.09-.45-.31-1.2-.41-.3.21-1.11.05-1.11.46-.37.02-.45-.17-.6-.27-.64.22-3.05.25-2.29.64l.17.02s-.07.02-.11.02c-2.11.54-4.47.08-6.58.43v-.14c-1.26.25-2.82.35-3.7.72-.37.04-.91-.16-.76-.34-.96.2-1.05.35-2.47.28.95-.35-.36-.18.98-.28-1.27.01-1.58-.16-2.89.36.42-.4-1-.33-1.58-.16l.91.15c-.67.13-1.26.16-1.86.2l.27-.5c-2.65-.21-4.51,1.53-6.59.92-.63.42,1.43.01.87.48-1.19.12-2.52-.35-2.89-.29-1.66,0-1.4.9-3.12,1.03.25.12.52.52-.7.9-1.18.14-1.57-.4-.85-.68.28-.06.43-.04.42.02.37-.13.86-.28.36-.38l-.12.19c-.62-.07-2.23.28-1.9-.06-.86.34-.33.34.35.29-1.55.08-2.36.45-3.93.66.27.03.53.17.29.22-2.31.32-.93.53-2.44.95-.92-.03.17-.66-1.31-.07-.98.08-.31-.37.04-.6-1.32.67-2.67.45-3.48.64l.7-.34c-.42.2-.78.3-1.15.4l.51.2c-.45.07-.81.17-.84.04-.38.33.49.43-.31.96-.62,0-1.69.66-2.01.31,1.84-.39-.33-.37,1.18-.87-.28.14-.64.23-1.09.3-.08-.03.03-.11.15-.16-1.83.16-.65.72-2.42,1.26.15-.31-.55-.32-.83-.18.72-.22.47.28-.13.67-1.19.2-1.18.55-1.77.73l.7-.15c-.15.31-.72.47-1.48.81-.13-.16.67-.37.36-.35-.73.7-2.11.26-3.21.99-.62.05-.22-.41-.75-.33-1.24.8-1.59.24-2.9,1.06.53.14.57.04-.3.74l2.22-1.15-1.3,1.05c.69-.28,1.39-.8,1.83-.89-.61.52-.57.41-.13.54-1.14-.09-1.77,1.03-2.99,1.17l-.28-.77c-1.8.35-2.75,1.64-4.94,2.44l.73-.2c-.14.43-1.27.67-1.89,1.11-.06-.28-.52-.16-.89-.17.12.15-1.53.74-1.46,1.34l-1.08.17c-1.74.74-1.5,1.71-3.1,2.52.32-.53-.49-.29.45-1.08-.52.3-1.02.53-.93.7-.4.02-1.25,1.15-1.85,1.24-.15.24-.07.53-.65.87-.09,0-.07-.12-.07-.12.07.12-.79.72-.13.66-2.04.27-4.24,2.92-5.93,3.34-1.01.83-2.15,1.97-3.04,2.79,0-.11-.09-.1.1-.23-1.42.93-.26,1.21-1.73,2.38-.98.4.51-.9-.02-.57-.81-.4-1.53,1.7-2.68,2.4l.15-.28c-.82.61-1.26,2.06-2.16,3.36,0,0-.02-.11-.11-.08-.2,1.18-1.23,2.94-1.77,4.37-.09-.58.16-.7-.29-.61-.28.63.6.1.05,1.34-.37.3-1,1.08-1.38,1.05.16-.4.38-.77.57-1.16-.78.36-.74,1.5-1.07,2.1l-.16-.17c-.7,1.87-.29,2.06-.98,4.06l.22-.15c.14,1.26-.6.82-.58,2.03l-.64.17c-.06.79-.16,2.73-.35,4.07-.25-.83-.04-2.44-.03-3.47-.19.74-.59,2.53-.42,2.97.02-.31-.02-.71.14-.99.16,1,.18,2.23-.07,3.7-.48-.21-.78.74-.9,1.9-.13,1.15-.24,2.48-.7,3.01.19,1.36.15,2.7.1,4.1.08,1.4,0,2.88.31,4.44.61-1.23.19.91.99.57.18.69.22.96.18,1.04v-.15c0,.07,0,.11,0,.16h0c-.04.76-.06,1.52.01,2.27-.09.57-.38-.63-.54-.52.39,1.58-.16.75-.07,1.86.23-.3.57.42.73,1.35v-1.38c1.04,2.03-.04,2.1,1.21,4.09l-.52-.57c.32.51.65,1.57,1.27,2.48.57.94,1.21,1.83,1.77,2.16.01.23-.05.6-.35.17,1.37,2.57,4.25,4.68,5.53,6.44h-.3c.43.32.93.34,1.27.94-.08.04-.3.01-.12.18.27.12,1.28.65,1.75,1.16l-.61-.19c1.99,1.94,3.7,2.07,5.68,3.1-.33.53,1.44,1.76,2.36,2.32l-.07.06c1.41.74,2.69,1.18,3.97,1.52,1.27.32,2.52.54,3.91.92.72.61,2.11,1.2,3.64,1.79,1.55.52,3.26,1.02,4.57,1.62-.39-.23.2-.44.71-.35.61.31,1.88.13,1.63.64l-.23-.08c.33.7,1.7.9,2.74,1.17l.36-.67c1.23.85,3.04,1.2,4.69,1.5,1.66.29,3.18.42,3.83,1.05.7-.05,1.52.12,2.21.07l-.11.38c1.82.48,2.73.71,5.04.96l-.51.2c1.29.23,1.81-.86,3-.69l.27.64c2.24.38,4.47,1.15,6.77.9-.05.08-.13.24-.5.22,1.06.15,4.07.91,3.77.06-.03.54,2.33.28,3.57.16l-.23.37c1.08-.39,1.12-.53,2.57-.53.34.08.27.34-.17.2,1.12.31.92-.28,2.28.05l-.53.2c1.17.14,1.09-.01,1.75-.25.75-.1,2.21.25,2.36.61.17-.2.83-.44,1.52-.3.08.14-.17.2-.3.23,1.94.39,2.94-.23,4.26.2.02.13.11.2.22.24-1.56-.07-2.81-.21-2.69-.22-.02.36,1.23.5.2.93,1.03-.19,2.79-.69,4-.47.06.04.11.07.16.13l-.13.03c.28.05.54.03.78-.02.39.08.64.13,1.01.15.13.3,1.44.23,2.06.27-.04-.39.78-.29.03-.65.1.03-.12.04-.54.04-.09,0-.21,0-.27.03l.04-.03c-.41-.01-.95-.03-1.56-.05.5-.17,1.03-.32,1.71-.07.33-.24.7-.48.9-.59.83.59,2.48.93,2.7,1.27,1.92-.16,4.52-.01,5.74-.71.55-.08.62.23.82.35-.32.07-.69.04-.86.14,1.09-.15,3.22-.02,3.49-.52,1.37.25-.78.46,1.11.4l-.26.15c3.7.89,6.04-1.22,10.13-.15-.28-.07-.43-.1-.48-.18,4.68.5,9.64-.41,14.26.33,1.31.15,1.45-.18,2.26-.43l.28.42,1.37-.48c1.94-.35,3.36,1.04,5.82.38l-.32-.28c.88.06,2.8-.16,2.65.17.09-.05.29-.29.63-.14l.03.22,2.17-.35c.32.03.51.09.62.15-.09.01-.18.02-.26.03-.14.06.08.19.44.33.03.21.14.4,1.38.43.07,0,.15-.02.22-.03.08.01.16.02.22.03,1.23-.04,1.35-.23,1.38-.43.36-.13.58-.26.44-.33-.08,0-.17-.01-.26-.03.11-.06.3-.12.62-.15l2.17.35.03-.22c.34-.15.54.09.63.14-.15-.33,1.76-.11,2.65-.17l-.32.28c2.46.66,3.87-.73,5.82-.38l1.37.48.28-.42c.8.25.94.57,2.26.43,4.61-.74,9.58.16,14.26-.33-.06.09-.2.12-.48.18,4.1-1.07,6.43,1.03,10.13.15l-.26-.15c1.88.05-.26-.15,1.11-.4.27.5,2.4.37,3.49.52-.17-.1-.55-.08-.86-.14.2-.12.28-.43.82-.35,1.22.7,3.82.55,5.74.71.22-.34,1.86-.68,2.7-1.27.2.11.57.35.9.59.68-.25,1.21-.11,1.71.07-.61.02-1.15.03-1.56.05l.04.03c-.06-.02-.17-.02-.27-.03-.42,0-.64,0-.54-.04-.76.36.06.26.03.65.63-.04,1.93.03,2.06-.27.38-.02.62-.08,1.01-.15.24.05.5.07.78.02l-.13-.03c.04-.06.1-.09.16-.13,1.22-.22,2.97.28,4,.47-1.03-.42.22-.57.2-.93.12,0-1.13.15-2.69.22.11-.04.19-.11.22-.24,1.32-.43,2.32.19,4.26-.2-.13-.03-.39-.1-.3-.23.68-.15,1.34.09,1.52.3.15-.36,1.61-.71,2.36-.61.67.24.58.4,1.75.25l-.53-.2c1.36-.33,1.16.26,2.28-.05-.44.14-.51-.11-.17-.2,1.45,0,1.49.13,2.57.53l-.23-.37c1.24.11,3.6.38,3.57-.16-.3.85,2.71.09,3.77-.06-.37.02-.46-.14-.5-.22,2.3.25,4.53-.52,6.77-.9l.27-.64c1.19-.17,1.71.92,3,.69l-.51-.2c2.31-.26,3.22-.48,5.04-.96l-.11-.38c.69.05,1.51-.12,2.21-.07.65-.63,2.17-.76,3.83-1.05,1.65-.3,3.47-.65,4.69-1.5l.36.67c1.04-.26,2.42-.47,2.74-1.17l-.23.08c-.25-.51,1.02-.32,1.63-.64.5-.09,1.09.11.71.35,1.31-.6,3.02-1.1,4.57-1.62,1.53-.59,2.93-1.17,3.64-1.79,1.38-.38,2.63-.6,3.91-.92,1.28-.34,2.56-.78,3.97-1.52l-.07-.06c.92-.56,2.69-1.8,2.36-2.32,1.98-1.03,3.7-1.16,5.68-3.1l-.61.19c.48-.51,1.49-1.03,1.75-1.16.17-.17-.04-.14-.12-.18.34-.6.84-.62,1.27-.94h-.3c1.28-1.76,4.16-3.87,5.53-6.44-.3.43-.37.06-.35-.17.56-.33,1.2-1.23,1.77-2.16.62-.92.94-1.97,1.27-2.48l-.52.57c1.25-1.99.17-2.06,1.21-4.09v1.38c.16-.93.5-1.65.73-1.35.09-1.11-.46-.28-.07-1.86-.17-.11-.45,1.09-.54.52.07-.75.05-1.51.01-2.27h0c0-.06,0-.09-.01-.16v.15c-.03-.08,0-.35.19-1.04.8.34.38-1.8.99-.57.32-1.56.24-3.05.31-4.44-.05-1.4-.09-2.74.1-4.1ZM177.69,324.55s.04-.03.05-.05c-.04.07-.09.14-.17.19-.42.04-.56-.05-.61-.13.2,0,.43,0,.73-.01ZM288.63,324.69c-.08-.05-.13-.12-.17-.19.02.01.04.03.05.05.3,0,.53,0,.73.01-.05.08-.19.17-.61.13ZM242.52,216.64c.14.02.27.04.4.06-.17,0-.34,0-.51,0,.03-.02.06-.04.11-.06ZM223.67,216.64c.06.02.08.04.11.06-.17,0-.34,0-.51,0,.13-.02.25-.04.4-.06Z"/><path class="c" d="M287.93,324.09c-.08.03-.16.06-.25.1.08,0,.11.01.17.02.07,0,.15,0,.22,0-.05-.04-.1-.08-.15-.12Z"/><path class="c" d="M281.99,217.03h-.06s-.03.03-.06.05c.03-.02.07-.04.12-.05Z"/><path class="c" d="M250.28,216.11l1.62-.11c-2.13.05.34-.72-1.7-.28.74.04.36.24.08.39Z"/><path class="c" d="M256.94,215.82c.65-.12.52-.16-.03-.3.05.09-.84.22.03.3Z"/><path class="c" d="M293.23,217.3l.05.36c-.06-.22.61-.25-.05-.36Z"/><polygon class="c" points="305.2 218.49 304.1 218.2 304.39 218.29 305.2 218.49"/><path class="c" d="M361.67,239.7c-.53-.57-.74-.11-.42.23l.42-.23Z"/><path class="c" d="M377.22,261.32c.05.31.4.83.62,1.39.06-.51-.32-1.19-.62-1.39Z"/><polygon class="c" points="336.88 318.53 337.89 318.4 337.33 318.39 336.88 318.53"/><path class="c" d="M153.46,220.35c.23-.05.32-.11.32-.16-.21.07-.38.13-.32.16Z"/><path class="c" d="M148.22,220.93c.11-.01.21-.03.31-.04-.12-.01-.25-.01-.31.04Z"/><path class="c" d="M183.89,217l-.83-.09c-.05.15.43.08.83.09Z"/><path class="c" d="M197.33,215.96h.25c.07-.06.14-.13.2-.2l-.45.2Z"/><path class="c" d="M207.28,216.19c.13-.16.3-.24.51-.27,0-.07-.03-.16-.11-.27-.23-.01-.31.38-.4.55Z"/><path class="c" d="M138.76,222.88s.03,0,.04,0c.23-.11.1-.07-.04,0Z"/><path class="c" d="M86.56,285.09c.15-1.07.75,1.54.84-.05-.12.18-.86-1.26-.84.05Z"/><path class="c" d="M118.4,231.27s-.09-.05-.28-.05c.07.04.18.05.28.05Z"/><path class="c" d="M110.85,235.87c-.2.09-.3.09-.53.3.03,0,.07,0,.1,0,.06-.1.18-.2.42-.29Z"/><path class="c" d="M103.46,240.94c.06,0,.12-.03.18-.04.07-.06.14-.13.21-.19l-.39.23Z"/><path class="c" d="M178.34,324.21c.06,0,.09-.02.17-.02-.08-.04-.16-.07-.25-.1-.05.04-.1.08-.15.12.08,0,.15,0,.22,0Z"/><path class="c" d="M184.21,217.03s.09.02.12.05c-.04-.02-.04-.03-.06-.04h-.06Z"/><path class="c" d="M215.99,215.72c-2.05-.44.42.34-1.7.28l1.62.11c-.28-.15-.66-.35.08-.39Z"/><path class="c" d="M209.29,215.52c-.55.14-.69.18-.03.3.87-.08-.01-.22.03-.3Z"/><path class="c" d="M172.91,217.66l.05-.36c-.67.12,0,.14-.05.36Z"/><polygon class="c" points="162.09 218.2 160.99 218.49 161.81 218.29 162.09 218.2"/><path class="c" d="M104.52,239.7l.42.23c.32-.34.11-.8-.42-.23Z"/><path class="c" d="M88.35,262.72c.22-.57.58-1.08.62-1.39-.3.2-.68.89-.62,1.39Z"/><polygon class="c" points="128.31 318.4 129.32 318.53 128.87 318.39 128.31 318.4"/><path class="b" d="M325.31,247.42c-9.71.74-15.25,8.32-11.09,15.9s16.64,6.29,20.8,2.13c5.55-5.55.07-18.78-9.71-18.03Z"/><path class="d" d="M325.38,248.34c-.05-.12-.04-.39.06-.33l.1.46-.16-.12Z"/><path class="d" d="M326.02,247.5c.13.22.25.62.17,1.04-.11-.44-.13-.26-.27-.78-.1-.05-.17.15-.15.31-.04-.12-.15.1-.22-.19.11-.35.29-.37.47-.07.04-.1,0-.22,0-.31Z"/><path class="d" d="M335.22,251.71l-.09-.02s.06,0,.09.02Z"/><path class="d" d="M337.97,257.78c0-.05.05-.08.09-.09-.02.05-.04.1-.09.09Z"/><path class="d" d="M338.6,258.91s-.02-.05-.03-.07c.04.02.07.05.03.07Z"/><path class="d" d="M335.22,251.71l.22.06c-.12.1-.15,0-.22-.06Z"/><path class="d" d="M327.27,248.67s-.05-.08-.06-.14c.02.02.05.05.07.06v.07Z"/><path class="d" d="M333.5,249.24l-.04-.04s.05-.11.09-.17l-.04.21Z"/><path class="d" d="M331.62,247.82c.06.01-.13.36-.19.51.06-.15.06-.24.04-.29.04-.06.09-.14.16-.23Z"/><path class="d" d="M327.98,247.2l-.05-.06s.03.04.05.06Z"/><path class="d" d="M334.74,250.36s.09-.06.12-.08c-.04.03-.08.06-.12.08Z"/><path class="d" d="M323.23,249.58s0-.04-.01-.07c.02.04.03.06.01.07Z"/><polygon class="d" points="325.31 247.32 325.27 247.3 325.25 247.09 325.31 247.32"/><path class="d" d="M339,261.22h0c.05-.07.04-.03,0,0Z"/><path class="d" d="M322.35,270.1c.27-.31-.29-.5.1-.83-.06.14.21.65-.1.83Z"/><path class="d" d="M327.33,248.63s.05.02.08.02c-.04,0-.06,0-.08-.02Z"/><path class="d" d="M322.45,269.27h0s.04-.03.04-.03c-.02.01-.03.02-.04.03Z"/><path class="d" d="M336.57,266.19c-.04-.05-.07-.11-.09-.16.03.03.06.07.09.16Z"/><path class="d" d="M337.96,262.4l.02.11s-.03-.08-.02-.11Z"/><path class="d" d="M334.65,267.19c-.03.05-.01.11-.1.1,0-.02,0-.03,0-.05.05.03.09.03.11-.05Z"/><path class="d" d="M332.88,268.19s0-.06,0-.09h.07s-.07.09-.07.09Z"/><path class="d" d="M318.58,251.24c-.03-.11-.08-.22-.12-.33.13.25.39.21.12.33Z"/><path class="d" d="M327.3,248.45c0,.1,0,.15.03.18-.02,0-.03-.02-.05-.03,0-.06,0-.11.03-.14Z"/><path class="d" d="M332.83,264.7l-.17.17c.04-.07.1-.13.17-.17Z"/><path class="d" d="M314.87,260.8l.03-.07s.01.04-.03.07Z"/><path class="d" d="M332.03,265.19c.02.14.02.23,0,.3-.02-.02-.05-.04-.07-.08l.07-.22Z"/><path class="d" d="M318.45,250.9h0s0,0,0,0Z"/><path class="d" d="M320.38,250.91c-.21.11-.32-.41-.49-.65-.34,0,.04.4.06.67-.23-.06-.56-.38-.67-.3.03.08.02.12.1.2-.37-.26-.5.27-.97-.05,0,.05.03.09.04.12-.11-.23-.24-.46-.35-.61-.11.05-.37-.16-.22.15.05-.05.13.06.22.13l-.18-.05c.18.46.23.04.43.35-.28-.01-.72-.16-.8.06.25.4.43-.12.48.36l.11-.31c.26.74.1-.14.4.63-.19.31-.44.03-.63.35-.22-.16-.22-.32-.44-.48-.72-.05.46,1.15-.21.91-.28-.17-.72-.57-.69-.16l.44.32c-.2.26-.69-.41-.68.1.19.09.32-.06.33.01.14.44-.34-.1-.45.04l.33.34c-.26.22-.81.3-1.1.59.13.06.28.09.36.25-.45.29-.52.91-.4,1.44h-.44s.14.14.23.13c.07.22-.24-.09-.43-.07-.07.09.16.21.3.19-.46.14-.96.67-.65,1.09l.14-.04c.1.27-.86.15-.53.46l.08-.04c.06.31-.06.6-.05.9.02.29.08.57.39.77-.61.13.31.53-.48.67.46.28.59.16.93.54.05.11-.46.29-.49.47l.41-.11-.37.32.52-.04-.06.17s-.22-.06-.34-.01c-.11.28.45.44.66.36-.07.21-.09.41-.12.63.15-.08.17-.18.24-.29-.28.43.44-.13.18.26-.1,0-.22.12-.3.16.29.01.42.28.41.53l.24-.18c.23.31.3.71.52,1.08-.19-.04-.59.28-.55.42l.39-.23c-.18.24-.21-.01-.39.34.14.11.46-.23.53-.39,0,.09-.01.17,0,.25.11-.08.14-.15.26-.27-.16.24.57-.07.27.33l.11-.08c.29.27.26.57.54.78-.25.3-.08.32-.19.63.3.06.69.01.94.2.09.27-.12.31-.15.56.2-.29.47-.11.45-.41.31.23.37.31.7.79-.11.11-.2.15-.22.27.06.09.26-.06.32-.22v-.04c.35.72,1.54-.48,1.75.31v-.04s.34.5.34.5c.22,0-.06-.29.14-.46.36.72.8.06,1.14.53.45-.95,1.15.19,1.64-.43l-.04.24c.1.25.14-.13.23-.18-.02.19-.13.21-.07.35.48.16,1,.05,1.49-.1.5-.2.97-.46,1.44-.63.33-.13.4,1.23.76.56l-.21-.43c.83.44,1.43-.33,2.24-.08-.07-.09-.11-.22-.18-.19.04-.37.5-.2.6.05.09-.07-.06-.24-.04-.39.07-.23.5.27.45-.06,0-.05-.08-.09-.11-.1.16.13.38-.21.46.18.15-.28.52-.06.61-.35.33.33.29-.38.62.12-.33-.54.1-.66.4-.5-.15-.13,0-.23-.2-.42.16-.08.33-.09.5.19-.26-.77.9.04.36-.78.49-.16,1.09-.33,1.4-.71-.53-.29-.3.43-.86.02.45-.16,1-.19,1.1-.65-.02-.14-.28-.05-.39-.07.48-.27.21-.81.69-1.09-.06-.01-.13.01-.19.04.04-.07-.03-.19.24-.12l-.1.06c.36.23.95-.12,1.14-.11-.82-.01-.14-.48-1.19-.43.06-.04.2-.09.39-.04-.04-.09-.15-.13-.37-.09.19-.26.48-.12.51-.39-.14-.01-.2.04-.36.04.28-.1.57-.22.49-.46-.08,0-.19-.02-.19.04.05-.38.7-.69.44-1.14-.6.16-.2-.14-.71-.13.06-.08.1-.16.13-.24l.27.07c-.04-.21.3-.44.11-.6l-.19.19.04-.41.23.2c.23-.26.65-.07.46-.35-.04.07-.04-.23-.36-.28h0c.14-.14.31-.29.13-.42-.17,0-.55.16-.66.16.39-.2-.02-.51.39-.77-.09.07-.35.15-.41.15l.31-.18c-.14-.07-.19-.07-.39.01-.14-.27.65-.1.29-.37-.02.04-.07.04-.11.11-.22-.31-.02-.74-.31-1-.52.11,0,.32-.46.37-.1-.45.23-1.17-.14-1.52l.09.05c.62-.4-.49-.13-.3-.5-.02.08-.32.27-.25.22-.26-.21-.14-.66-.26-1.18l-.12.16c-.25-.05-.37-.34-.56-.45.11-.16.02-.24.28-.35-.59.07-.69-.21-.77-.54-.07-.32-.15-.67-.65-.54.04.05,0,.23-.04.2-.06-.16-.14-.3-.23-.44.24-.22.18-.11.42-.23.08-.18.07-.38-.03-.45.04.3-.34.39-.52.47.07-.07.12-.17.19-.24-.56.29.37-.53-.14-.45l-.09.14c-.05-.15-.01-.4-.15-.45-.26.26,0,.23-.17.48-.14-.13.11-.83-.26-.61.02.12.11.2.12.34-.39.23-.35.14-.51.13h.02s-.38.01-.38.01l.13-.06c.29-.95-.32-.39-.31-1.11,0,.69-.11.33-.28.72-.12.06-.28.12-.31.24.02-.38-.32.12-.3-.39-.06.12-.15-.04-.25.28-.13-.16.13-.2.18-.36-.12-.54-.83.29-1.02-.46-.29-.33-.26-.78-.58-1.07-.16.19,0,.5,0,.5-.23.16-.36.1-.52-.09.02.12-.03.22-.11.36-.13-.06-.03-.51-.24-.34.02.16.03.4.08.57-.14-.17-.28-.43-.45-.54-.06.23.08.36.13.51-.18-.11-.48-.21-.53-.59l.13-.13c-.07-.02-.05.32,0,.39.15.29.25-.13.27-.26l-.12-.09c.19-.8.52.12.76.15l-.03-.59.2.52c.08-.14.17-.45.05-.56.24-.24.14.23.36-.05.03-.05.02-.07.01-.1l.16.2c-.01-.13.11-.39-.02-.33.43-.26.46.53.7.13l-.02-.04c.42.31-.06.41.13,1,.17-.31.36-.61.55-.91l-.09.42c.05,0,.15,0,.19-.16.08.34-.09.16-.08.46.36-.28.53.39.86-.21-.05.32-.31.15-.17.44.37-.64.22.22.54.04.11-.37-.17-.3.18-.48-.17.63.45.09.56.3-.24.44.25.39.44.69.09-.17.63.13.98.17l.05-.07c-.27.44.03.55.13.77.19-.24.24-.35.23-.53l.17.14c-.07.15-.07.26,0,.39l.21-.32c.21.21.09.73.53.81-.25.26-.89.5-.82.91.15-.12.4-.34.39-.46,0,.04-.04.19.06.18l.13-.33c.21.02-.14.25-.03.32.2-.19.21-.06.36-.22,0-.04-.16,0-.12-.11.14.07.38.09.58,0-.13.09-.28.24-.23.35.18.22.32-.15.54-.11-.1.18.16.2-.16.46.05.06.21-.04.31-.09-.05.23.37.58-.08.71h-.04s0,0,0,.02h0s0,0,0,0c-.05.6.77.64.83,1.16l.12-.07c0,.32.22.59.06.89.04.07.32.05.45-.05.02.23-.13.32.2.51.13-.3.22-.02.07-.28.21.21.44.19.21.61.28-.23.49.03.45.2l-.31-.09c0,.16.09.27.17.38l.4-.23c.79.38-.6,1.3.44,1.46-.27.23-.31-.25-.63-.01.13.23.85.35.87.43.35.31-.59.48-.36.82-.17-.02-.61.02-.72.31.1.24.73.22.84.03,0-.07-.05-.09-.11-.08.05-.09.1-.22.29-.14l-.16.06c.19.11.22.48.48.36-.13.23-.26.12-.36-.02.28.32.11.53.26.89-.09-.05-.29-.09-.28-.04.21.52-.31.25-.37.59.25.2.6-.08.39.28.17.22.44.06.57-.04-.32.33.23.64.25.86l.16-.18c-.09.11-.1.2-.11.29l-.32-.13c.04.11.03.2.17.21-.23.09-.53-.13-.86.05.15.16-.23.38.19.49-.09-.46.43.11.55-.26-.06.07-.07.16-.03.27.05.02.09,0,.12-.03.33.5-.52.13-.57.56.25,0,.44.2.38.26.02-.18-.38-.17-.61-.05.11.32-.23.26-.25.4l-.04-.18c-.25,0-.26.13-.39.29.18.07.18-.13.24-.04-.47.07.29.6-.08.79.11.19.43.18.49.34-.43.2.14.49-.27.73-.25-.25-.17-.22-.57-.14l.49-.44-.61.14c.07-.15.36-.24.36-.36-.33.05-.24.07-.46-.11.35.41-.47.28-.29.66l.73.38c.11.58-.7.48-.9,1.02v-.23c-.31-.14-.25.24-.47.29.22.16.23.31.3.49-.15-.14-.26.34-.68,0,.04.15.07.29.08.43-.25.41-.91-.25-1.15.08.28.15.25.43.61.41-.11.1-.18.22-.3.07.04.2-.53-.06-.48.21-.12-.07-.29-.3-.41-.2.02.06.07.11.07.11-.08-.11-.3-.03-.35-.35.06.46-.2.62-.45.73-.26.09-.52.17-.53.58-.31.04-.65.13-.9.18.05.07.05.13.09.08-.25.36-.49-.66-.76-.26-.05.49.28.15.22.35.25.87-.5.05-.6.64l.08.03c-.12.35-.6-.19-.91-.04,0,0,.04.07.04.13-.35-.39-.79-.4-1.14-.49.17.33.18.16.19.52-.15-.02-.08-.57-.38-.62-.05.21-.23.41-.19.79l.28-.03c-.05.51-.36.05-.49.16l.05.21c-.44,0-.52-.51-.96-.44l.03-.17c-.3-.51-.17.32-.46-.06l-.02.55c-.18-.12-.61-.47-.9-.55.18.39.54.57.78.79-.16.02-.56.01-.66-.25.07.05.16.17.22.08-.23-.4-.49-.61-.81-.6.08,1.06-.83.28-1.08,1.1-.57-.43-1.18.09-1.88-.04.35-.78-.2-.06-.04-.89-.15-.08-.21-.08-.23-.02l-.55.42c-.16.22.12.21.07.39-.37,0-.21.33-.49.51.11-.29-.04-.45-.27-.37l.36-.33c-.39-.52-.58.62-.98.05l.09.3c-.22-.22-.96-.26-1-.98-.07.08-.21.28-.11.37-.65-.12-1.04-1.18-1.65-.98l-.05.21c-.08-.11,0-.45-.23-.33-.03.08-.05.21-.11.19-.03-.1-.11-.48-.3-.45v.27c-.68-.09-.56-.94-.86-1.37-.35.5-.87.35-1.14.27l-.05.07c-.68-.39-.6-1.28-.88-1.89-.83.13-1.05-1-1.76-1.39.15.04.4-.24.41-.38-.18-.08.2-.57-.29-.3l.03.05c-.54.14-.55-.22-.67-.45l.65-.33c-.64-.07-.71-.52-.71-.94-.02-.41,0-.77-.51-.83.12-.2.1-.4.24-.59l-.38.09c-.18-.43-.27-.65-.26-1.22l-.26.15c-.08-.33,1.1-.51,1.11-.77l-.59-.06c-.01-.53-.54-1.14.08-1.64-.09,0-.26,0-.29.08.01-.26-.26-1.1.52-.85-.53-.11.09-.57.38-.78l-.38-.06c.54-.11.67-.07.89-.35-.03-.09-.27-.17-.21-.03-.12-.32.4-.08.33-.43l-.28.02c.08-.26.2-.19.52-.22.21-.09.11-.49-.19-.69.21.06.52.05.5-.13-.11-.08-.21-.07-.25-.06,0-.52.73-.34.56-.8-.1-.07-.15-.13-.17-.17-.18.31-.32.57-.28.56-.31-.17-.21-.47-.76-.5.37-.09,1.07-.12,1.08-.46-.02-.03-.04-.06-.08-.1h-.05c0-.07.06-.11.15-.12.01-.11.01-.18.06-.25-.21-.2.09-.37.18-.49.3.25.37.07.5.41,0-.04-.05,0-.13.06-.02,0-.04.03-.07.02h.03c-.07.08-.15.17-.25.28.23.03.43.04.36-.22.24.1.49.2.61.24-.31-.49-.28-.98-.49-1.25.47-.17.87-.65,1.55-.29.15-.01-.04-.25-.08-.37-.1,0-.15.06-.25,0,.29-.05.62-.41.98-.05.1-.36-.43-.27-.04-.45l-.14-.09c.1-.57.56-.55,1.02-.47.46.07.88.14,1.02-.55-.02.09-.04.13,0,.21.72-.91,2.05-.5,2.78-1.48.23-.23.36.07.59.26l-.05-.42.41.4c.48.26.49-1.16,1.15-.62l-.02.29c.18-.11.62.06.54-.25.03.05.11.28.16.13l-.03-.22.51.31c.34-.2-.17-.86.37-.96.21.06.62.57.56.72-.08.02-.19.16-.18.38l.18.09c.09.64.25,1.28-.1,1.78l-.31-.36-.05.32h.23c-.1.3-.21.05-.32-.12,0,.17-.03.29-.07.36l-.35-.58c0,.25.19.48.03.64-.17-.27.04-.58-.2-.74-.09.31-.01.54-.21.31,0,.17.05.27.13.33-.17-.19-.37-.03-.5-.35-.07.39-.47,0-.33.6-.07-.13-.34-.42-.47-.41.39.66-.45.14-.19.89-.34-.61-.64-.1-1.03-.37.03.04.1.13.11.09-.14.1-.12.31-.18.46-.2-.51-.49-.54-.75-.81,0,.56.35.55.46,1.05-.15-.43-.48-.28-.55-.65-.02.37-.06.2.04.65-.29-.61-.17-.05-.46-.38-.07.4.21.6-.1.51-.01.23.28.37.28.37ZM315.33,253.55h0s.06-.07.08-.09c-.02.02-.04.04-.09.09ZM315.07,253.97c.02-.06.05-.12.1-.19-.1-.09-.23-.15-.25-.1.09.02.09.17.15.29ZM313.51,251.46c-.11.04-.07.12-.01.18.03-.03.08-.07.15-.11l.05.02c-.06-.04-.13-.07-.18-.09Z"/><path class="d" d="M314.02,251.64s.03,0,.05-.01c.01.04.02.07.03.1l-.12-.05.04-.04Z"/><path class="d" d="M335.12,251.68h.01s-.04,0-.06.02c.02,0,.03-.01.05-.02Z"/><polygon class="d" points="314.9 260.26 314.8 260.28 314.87 260.22 314.9 260.26"/><path class="d" d="M332.12,250.41s-.06.04-.09.05c.02-.02.05-.04.09-.05Z"/><path class="d" d="M331.1,249.75l-.22.03c.1-.03.17-.04.22-.03Z"/><path class="d" d="M330.21,249.47c.03-.06.04-.11.06-.16h0s-.06.16-.06.16Z"/><path class="d" d="M335.46,261.65s-.01.02-.03.03c-.09.05-.05.01.03-.03Z"/><path class="d" d="M336.43,257.45c-.06.06-.12.12-.16.18-.04-.07-.06-.13.16-.18Z"/><polygon class="d" points="332.85 264.68 332.85 264.69 332.83 264.7 332.85 264.68"/><path class="d" d="M336.3,257.83c-.09-.07-.08-.13-.04-.2.04.06.09.13.04.2Z"/><path class="d" d="M326.49,248.65l-.04.02s0-.05,0-.06l.05.05Z"/><path class="d" d="M326.44,248.6l-.05-.05s.04,0,.05.05Z"/><path class="d" d="M326.3,248.45l.1.1s-.08.01-.1-.1Z"/><path class="d" d="M327.67,248.6v.14s-.01-.08,0-.14Z"/><path class="d" d="M328.02,248.7c-.09.02-.27.26-.37.15v-.11c.02.22.33-.28.37-.04Z"/><path class="d" d="M330.11,247.54l-.38-.02c.11-.12.26-.28.12-.37.6-.26-.21.28.26.39Z"/><path class="d" d="M331.22,247.82c-.14-.16.1-.19.14-.27.05.18.05.23-.14.27Z"/><path class="d" d="M336.69,253.64l.31-.17c.03.16-.12.06-.31.17Z"/><polygon class="d" points="335.56 255.69 335.31 255.65 335.59 255.48 335.56 255.69"/><polygon class="d" points="338.23 255.73 338.26 255.65 338.2 255.94 338.23 255.73"/><path class="d" d="M333.36,268.34l-.16-.41c.13.03.37.45.16.41Z"/><path class="d" d="M327.59,269.56c-.04.22-.19.38-.31.17.13-.04.24-.22.31-.17Z"/><polygon class="d" points="312.05 262.75 311.97 262.92 311.98 262.66 312.05 262.75"/><path class="b" d="M140.88,247.42c9.71.74,15.25,8.32,11.09,15.9s-16.64,6.29-20.8,2.13c-5.55-5.55-.07-18.78,9.71-18.03Z"/><path class="d" d="M140.81,248.34c.05-.12.04-.39-.06-.33l-.1.46.16-.12Z"/><path class="d" d="M140.17,247.5c-.13.22-.25.62-.17,1.04.11-.44.13-.26.27-.78.1-.05.17.15.15.31.04-.12.15.1.22-.19-.11-.35-.29-.37-.47-.07-.04-.1,0-.22,0-.31Z"/><path class="d" d="M130.98,251.71l.09-.02s-.06,0-.09.02Z"/><path class="d" d="M128.22,257.78c0-.05-.05-.08-.09-.09.02.05.04.1.09.09Z"/><path class="d" d="M127.59,258.91s.02-.05.03-.07c-.04.02-.07.05-.03.07Z"/><path class="d" d="M130.98,251.71l-.22.06c.12.1.15,0,.22-.06Z"/><path class="d" d="M138.92,248.67s.05-.08.06-.14c-.02.02-.05.05-.07.06v.07Z"/><path class="d" d="M132.7,249.24l.04-.04s-.05-.11-.09-.17l.04.21Z"/><path class="d" d="M134.57,247.82c-.06.01.13.36.19.51-.06-.15-.06-.24-.04-.29-.04-.06-.09-.14-.16-.23Z"/><path class="d" d="M138.22,247.2l.05-.06s-.03.04-.05.06Z"/><path class="d" d="M131.45,250.36s-.09-.06-.12-.08c.04.03.08.06.12.08Z"/><path class="d" d="M142.96,249.58s0-.04.01-.07c-.02.04-.03.06-.01.07Z"/><polygon class="d" points="140.89 247.32 140.92 247.3 140.95 247.09 140.89 247.32"/><path class="d" d="M127.2,261.22h0c-.05-.07-.04-.03,0,0Z"/><path class="d" d="M143.84,270.1c-.27-.31.29-.5-.1-.83.06.14-.21.65.1.83Z"/><path class="d" d="M138.87,248.63s-.05.02-.08.02c.04,0,.06,0,.08-.02Z"/><path class="d" d="M143.75,269.27h0s-.04-.03-.04-.03c.02.01.03.02.04.03Z"/><path class="d" d="M129.63,266.19c.04-.05.07-.11.09-.16-.03.03-.06.07-.09.16Z"/><path class="d" d="M128.24,262.4l-.02.11s.03-.08.02-.11Z"/><path class="d" d="M131.54,267.19c.03.05.01.11.1.1,0-.02,0-.03,0-.05-.05.03-.09.03-.11-.05Z"/><path class="d" d="M133.31,268.19s0-.06,0-.09h-.07s.07.09.07.09Z"/><path class="d" d="M147.62,251.24c.03-.11.08-.22.12-.33-.13.25-.39.21-.12.33Z"/><path class="d" d="M138.89,248.45c0,.1,0,.15-.03.18.02,0,.03-.02.05-.03,0-.06,0-.11-.03-.14Z"/><path class="d" d="M133.36,264.7l.17.17c-.04-.07-.1-.13-.17-.17Z"/><path class="d" d="M151.33,260.8l-.03-.07s-.01.04.03.07Z"/><path class="d" d="M134.16,265.19c-.02.14-.02.23,0,.3.02-.02.05-.04.07-.08l-.07-.22Z"/><path class="d" d="M147.74,250.9h0s0,0,0,0Z"/><path class="d" d="M145.81,250.91c.21.11.32-.41.49-.65.34,0-.04.4-.06.67.23-.06.56-.38.67-.3-.03.08-.02.12-.1.2.37-.26.5.27.97-.05,0,.05-.03.09-.04.12.11-.23.24-.46.35-.61.11.05.37-.16.22.15-.05-.05-.13.06-.22.13l.18-.05c-.18.46-.23.04-.43.35.28-.01.72-.16.8.06-.25.4-.43-.12-.48.36l-.11-.31c-.26.74-.1-.14-.4.63.19.31.44.03.63.35.22-.16.22-.32.44-.48.72-.05-.46,1.15.21.91.28-.17.72-.57.69-.16l-.44.32c.2.26.69-.41.68.1-.19.09-.32-.06-.33.01-.14.44.34-.1.45.04l-.33.34c.26.22.81.3,1.1.59-.13.06-.28.09-.36.25.45.29.52.91.4,1.44h.44s-.14.14-.23.13c-.07.22.24-.09.43-.07.07.09-.16.21-.3.19.46.14.96.67.65,1.09l-.14-.04c-.1.27.86.15.53.46l-.08-.04c-.06.31.06.6.05.9-.02.29-.08.57-.39.77.61.13-.31.53.48.67-.46.28-.59.16-.93.54-.05.11.46.29.49.47l-.41-.11.37.32-.52-.04.06.17s.22-.06.34-.01c.11.28-.45.44-.66.36.07.21.09.41.12.63-.15-.08-.17-.18-.24-.29.28.43-.44-.13-.18.26.1,0,.22.12.3.16-.29.01-.42.28-.41.53l-.24-.18c-.23.31-.3.71-.52,1.08.19-.04.59.28.55.42l-.39-.23c.18.24.21-.01.39.34-.14.11-.46-.23-.53-.39,0,.09.01.17,0,.25-.11-.08-.14-.15-.26-.27.16.24-.57-.07-.27.33l-.11-.08c-.29.27-.26.57-.54.78.25.3.08.32.19.63-.3.06-.69.01-.94.2-.09.27.12.31.15.56-.2-.29-.47-.11-.45-.41-.31.23-.37.31-.7.79.11.11.2.15.22.27-.06.09-.26-.06-.32-.22v-.04c-.35.72-1.54-.48-1.75.31v-.04s-.34.5-.34.5c-.22,0,.06-.29-.14-.46-.36.72-.8.06-1.14.53-.45-.95-1.15.19-1.64-.43l.04.24c-.1.25-.14-.13-.23-.18.02.19.13.21.07.35-.48.16-1,.05-1.49-.1-.5-.2-.97-.46-1.44-.63-.33-.13-.4,1.23-.76.56l.21-.43c-.83.44-1.43-.33-2.24-.08.07-.09.11-.22.18-.19-.04-.37-.5-.2-.6.05-.09-.07.06-.24.04-.39-.07-.23-.5.27-.45-.06,0-.05.08-.09.11-.1-.16.13-.38-.21-.46.18-.15-.28-.52-.06-.61-.35-.33.33-.29-.38-.62.12.33-.54-.1-.66-.4-.5.15-.13,0-.23.2-.42-.16-.08-.33-.09-.5.19.26-.77-.9.04-.36-.78-.49-.16-1.09-.33-1.4-.71.53-.29.3.43.86.02-.45-.16-1-.19-1.1-.65.02-.14.28-.05.39-.07-.48-.27-.21-.81-.69-1.09.06-.01.13.01.19.04-.04-.07.03-.19-.24-.12l.1.06c-.36.23-.95-.12-1.14-.11.82-.01.14-.48,1.19-.43-.06-.04-.2-.09-.39-.04.04-.09.15-.13.37-.09-.19-.26-.48-.12-.51-.39.14-.01.2.04.36.04-.28-.1-.57-.22-.49-.46.08,0,.19-.02.19.04-.05-.38-.7-.69-.44-1.14.6.16.2-.14.71-.13-.06-.08-.1-.16-.13-.24l-.27.07c.04-.21-.3-.44-.11-.6l.19.19-.04-.41-.23.2c-.23-.26-.65-.07-.46-.35.04.07.04-.23.36-.28h0c-.14-.14-.31-.29-.13-.42.17,0,.55.16.66.16-.39-.2.02-.51-.39-.77.09.07.35.15.41.15l-.31-.18c.14-.07.19-.07.39.01.14-.27-.65-.1-.29-.37.02.04.07.04.11.11.22-.31.02-.74.31-1,.52.11,0,.32.46.37.1-.45-.23-1.17.14-1.52l-.09.05c-.62-.4.49-.13.3-.5.02.08.32.27.25.22.26-.21.14-.66.26-1.18l.12.16c.25-.05.37-.34.56-.45-.11-.16-.02-.24-.28-.35.59.07.69-.21.77-.54.07-.32.15-.67.65-.54-.04.05,0,.23.04.2.06-.16.14-.3.23-.44-.24-.22-.18-.11-.42-.23-.08-.18-.07-.38.03-.45-.04.3.34.39.52.47-.07-.07-.12-.17-.19-.24.56.29-.37-.53.14-.45l.09.14c.05-.15.01-.4.15-.45.26.26,0,.23.17.48.14-.13-.11-.83.26-.61-.02.12-.11.2-.12.34.39.23.35.14.51.13h-.02s.38.01.38.01l-.13-.06c-.29-.95.32-.39.31-1.11,0,.69.11.33.28.72.12.06.28.12.31.24-.02-.38.32.12.3-.39.06.12.15-.04.25.28.13-.16-.13-.2-.18-.36.12-.54.83.29,1.02-.46.29-.33.26-.78.58-1.07.16.19,0,.5,0,.5.23.16.36.1.52-.09-.02.12.03.22.11.36.13-.06.03-.51.24-.34-.02.16-.03.4-.08.57.14-.17.28-.43.45-.54.06.23-.08.36-.13.51.18-.11.48-.21.53-.59l-.13-.13c.07-.02.05.32,0,.39-.15.29-.25-.13-.27-.26l.12-.09c-.19-.8-.52.12-.76.15l.03-.59-.2.52c-.08-.14-.17-.45-.05-.56-.24-.24-.14.23-.36-.05-.03-.05-.02-.07-.01-.1l-.16.2c.01-.13-.11-.39.02-.33-.43-.26-.46.53-.7.13l.02-.04c-.42.31.06.41-.13,1-.17-.31-.36-.61-.55-.91l.09.42c-.05,0-.15,0-.19-.16-.08.34.09.16.08.46-.36-.28-.53.39-.86-.21.05.32.31.15.17.44-.37-.64-.22.22-.54.04-.11-.37.17-.3-.18-.48.17.63-.45.09-.56.3.24.44-.25.39-.44.69-.09-.17-.63.13-.98.17l-.05-.07c.27.44-.03.55-.13.77-.19-.24-.24-.35-.23-.53l-.17.14c.07.15.07.26,0,.39l-.21-.32c-.21.21-.09.73-.53.81.25.26.89.5.82.91-.15-.12-.4-.34-.39-.46,0,.04.04.19-.06.18l-.13-.33c-.21.02.14.25.03.32-.2-.19-.21-.06-.36-.22,0-.04.16,0,.12-.11-.14.07-.38.09-.58,0,.13.09.28.24.23.35-.18.22-.32-.15-.54-.11.1.18-.16.2.16.46-.05.06-.21-.04-.31-.09.05.23-.37.58.08.71h.04s0,0,0,.02h0s0,0,0,0c.05.6-.77.64-.83,1.16l-.12-.07c0,.32-.22.59-.06.89-.04.07-.32.05-.45-.05-.02.23.13.32-.2.51-.13-.3-.22-.02-.07-.28-.21.21-.44.19-.21.61-.28-.23-.49.03-.45.2l.31-.09c0,.16-.09.27-.17.38l-.4-.23c-.79.38.6,1.3-.44,1.46.27.23.31-.25.63-.01-.13.23-.85.35-.87.43-.35.31.59.48.36.82.17-.02.61.02.72.31-.1.24-.73.22-.84.03,0-.07.05-.09.11-.08-.05-.09-.1-.22-.29-.14l.16.06c-.19.11-.22.48-.48.36.13.23.26.12.36-.02-.28.32-.11.53-.26.89.09-.05.29-.09.28-.04-.21.52.31.25.37.59-.25.2-.6-.08-.39.28-.17.22-.44.06-.57-.04.32.33-.23.64-.25.86l-.16-.18c.09.11.1.2.11.29l.32-.13c-.04.11-.03.2-.17.21.23.09.53-.13.86.05-.15.16.23.38-.19.49.09-.46-.43.11-.55-.26.06.07.07.16.03.27-.05.02-.09,0-.12-.03-.33.5.52.13.57.56-.25,0-.44.2-.38.26-.02-.18.38-.17.61-.05-.11.32.23.26.25.4l.04-.18c.25,0,.26.13.39.29-.18.07-.18-.13-.24-.04.47.07-.29.6.08.79-.11.19-.43.18-.49.34.43.2-.14.49.27.73.25-.25.17-.22.57-.14l-.49-.44.61.14c-.07-.15-.36-.24-.36-.36.33.05.24.07.46-.11-.35.41.47.28.29.66l-.73.38c-.11.58.7.48.9,1.02v-.23c.31-.14.25.24.47.29-.22.16-.23.31-.3.49.15-.14.26.34.68,0-.04.15-.07.29-.08.43.25.41.91-.25,1.15.08-.28.15-.25.43-.61.41.11.1.18.22.3.07-.04.2.53-.06.48.21.12-.07.29-.3.41-.2-.02.06-.07.11-.07.11.08-.11.3-.03.35-.35-.06.46.2.62.45.73.26.09.52.17.53.58.31.04.65.13.9.18-.05.07-.05.13-.09.08.25.36.49-.66.76-.26.05.49-.28.15-.22.35-.25.87.5.05.6.64l-.08.03c.12.35.6-.19.91-.04,0,0-.04.07-.04.13.35-.39.79-.4,1.14-.49-.17.33-.18.16-.19.52.15-.02.08-.57.38-.62.05.21.23.41.19.79l-.28-.03c.05.51.36.05.49.16l-.05.21c.44,0,.52-.51.96-.44l-.03-.17c.3-.51.17.32.46-.06l.02.55c.18-.12.61-.47.9-.55-.18.39-.54.57-.78.79.16.02.56.01.66-.25-.07.05-.16.17-.22.08.23-.4.49-.61.81-.6-.08,1.06.83.28,1.08,1.1.57-.43,1.18.09,1.88-.04-.35-.78.2-.06.04-.89.15-.08.21-.08.23-.02l.55.42c.16.22-.12.21-.07.39.37,0,.21.33.49.51-.11-.29.04-.45.27-.37l-.36-.33c.39-.52.58.62.98.05l-.09.3c.22-.22.96-.26,1-.98.07.08.21.28.11.37.65-.12,1.04-1.18,1.65-.98l.05.21c.08-.11,0-.45.23-.33.03.08.05.21.11.19.03-.1.11-.48.3-.45v.27c.68-.09.56-.94.86-1.37.35.5.87.35,1.14.27l.05.07c.68-.39.6-1.28.88-1.89.83.13,1.05-1,1.76-1.39-.15.04-.4-.24-.41-.38.18-.08-.2-.57.29-.3l-.03.05c.54.14.55-.22.67-.45l-.65-.33c.64-.07.71-.52.71-.94.02-.41,0-.77.51-.83-.12-.2-.1-.4-.24-.59l.38.09c.18-.43.27-.65.26-1.22l.26.15c.08-.33-1.1-.51-1.11-.77l.59-.06c.01-.53.54-1.14-.08-1.64.09,0,.26,0,.29.08-.01-.26.26-1.1-.52-.85.53-.11-.09-.57-.38-.78l.38-.06c-.54-.11-.67-.07-.89-.35.03-.09.27-.17.21-.03.12-.32-.4-.08-.33-.43l.28.02c-.08-.26-.2-.19-.52-.22-.21-.09-.11-.49.19-.69-.21.06-.52.05-.5-.13.11-.08.21-.07.25-.06,0-.52-.73-.34-.56-.8.1-.07.15-.13.17-.17.18.31.32.57.28.56.31-.17.21-.47.76-.5-.37-.09-1.07-.12-1.08-.46.02-.03.04-.06.08-.1h.05c0-.07-.06-.11-.15-.12-.01-.11-.01-.18-.06-.25.21-.2-.09-.37-.18-.49-.3.25-.37.07-.5.41,0-.04.05,0,.13.06.02,0,.04.03.07.02h-.03c.07.08.15.17.25.28-.23.03-.43.04-.36-.22-.24.1-.49.2-.61.24.31-.49.28-.98.49-1.25-.47-.17-.87-.65-1.55-.29-.15-.01.04-.25.08-.37.1,0,.15.06.25,0-.29-.05-.62-.41-.98-.05-.1-.36.43-.27.04-.45l.14-.09c-.1-.57-.56-.55-1.02-.47-.46.07-.88.14-1.02-.55.02.09.04.13,0,.21-.72-.91-2.05-.5-2.78-1.48-.23-.23-.36.07-.59.26l.05-.42-.41.4c-.48.26-.49-1.16-1.15-.62l.02.29c-.18-.11-.62.06-.54-.25-.03.05-.11.28-.16.13l.03-.22-.51.31c-.34-.2.17-.86-.37-.96-.21.06-.62.57-.56.72.08.02.19.16.18.38l-.18.09c-.09.64-.25,1.28.1,1.78l.31-.36.05.32h-.23c.1.3.21.05.32-.12,0,.17.03.29.07.36l.35-.58c0,.25-.19.48-.03.64.17-.27-.04-.58.2-.74.09.31.01.54.21.31,0,.17-.05.27-.13.33.17-.19.37-.03.5-.35.07.39.47,0,.33.6.07-.13.34-.42.47-.41-.39.66.45.14.19.89.34-.61.64-.1,1.03-.37-.03.04-.1.13-.11.09.14.1.12.31.18.46.2-.51.49-.54.75-.81,0,.56-.35.55-.46,1.05.15-.43.48-.28.55-.65.02.37.06.2-.04.65.29-.61.17-.05.46-.38.07.4-.21.6.1.51.01.23-.28.37-.28.37ZM150.87,253.55h0s-.06-.07-.08-.09c.02.02.04.04.09.09ZM151.13,253.97c-.02-.06-.05-.12-.1-.19.1-.09.23-.15.25-.1-.09.02-.09.17-.15.29ZM152.69,251.46c.11.04.07.12.01.18-.03-.03-.08-.07-.15-.11l-.05.02c.06-.04.13-.07.18-.09Z"/><path class="d" d="M152.17,251.64s-.03,0-.05-.01c-.01.04-.02.07-.03.1l.12-.05-.04-.04Z"/><path class="d" d="M131.07,251.68h-.01s.04,0,.06.02c-.02,0-.03-.01-.05-.02Z"/><polygon class="d" points="151.3 260.26 151.39 260.28 151.32 260.22 151.3 260.26"/><path class="d" d="M134.08,250.41s.06.04.09.05c-.02-.02-.05-.04-.09-.05Z"/><path class="d" d="M135.09,249.75l.22.03c-.1-.03-.17-.04-.22-.03Z"/><path class="d" d="M135.98,249.47c-.03-.06-.04-.11-.06-.16h0s.06.16.06.16Z"/><path class="d" d="M130.73,261.65s.01.02.03.03c.09.05.05.01-.03-.03Z"/><path class="d" d="M129.77,257.45c.06.06.12.12.16.18.04-.07.06-.13-.16-.18Z"/><polygon class="d" points="133.35 264.68 133.34 264.69 133.36 264.7 133.35 264.68"/><path class="d" d="M129.89,257.83c.09-.07.08-.13.04-.2-.04.06-.09.13-.04.2Z"/><path class="d" d="M139.71,248.65l.04.02s0-.05,0-.06l-.05.05Z"/><path class="d" d="M139.75,248.6l.05-.05s-.04,0-.05.05Z"/><path class="d" d="M139.9,248.45l-.1.1s.08.01.1-.1Z"/><path class="d" d="M138.52,248.6v.14s.01-.08,0-.14Z"/><path class="d" d="M138.18,248.7c.09.02.27.26.37.15v-.11c-.02.22-.33-.28-.37-.04Z"/><path class="d" d="M136.09,247.54l.38-.02c-.11-.12-.26-.28-.12-.37-.6-.26.21.28-.26.39Z"/><path class="d" d="M134.98,247.82c.14-.16-.1-.19-.14-.27-.05.18-.05.23.14.27Z"/><path class="d" d="M129.5,253.64l-.31-.17c-.03.16.12.06.31.17Z"/><polygon class="d" points="130.63 255.69 130.89 255.65 130.61 255.48 130.63 255.69"/><polygon class="d" points="127.97 255.73 127.94 255.65 127.99 255.94 127.97 255.73"/><path class="d" d="M132.83,268.34l.16-.41c-.13.03-.37.45-.16.41Z"/><path class="d" d="M138.61,269.56c.04.22.19.38.31.17-.13-.04-.24-.22-.31-.17Z"/><polygon class="d" points="154.14 262.75 154.23 262.92 154.21 262.66 154.14 262.75"/><path class="d" d="M234.45,286.6s.01-.03.02-.05c0-.05-.01-.02-.02.05Z"/><polygon class="d" points="252.18 294.3 252.1 294.6 252.11 294.64 252.18 294.3"/><path class="d" d="M241.47,288.21c.2-.52.03-.73.18-1.21-.14.29-.14.99-.18,1.21Z"/><path class="d" d="M237.29,286.97c.02-.09.03-.06.04.02,0-.02,0-.04,0-.07-.02-.08-.03,0-.04.05Z"/><path class="d" d="M237.89,287.06l.02.03s0-.07.01-.12l-.03.09Z"/><path class="d" d="M249.08,295.14c-.05.16-.1.32-.15.47.09.09.04-.09.15-.47Z"/><path class="d" d="M237.78,291.28c0-.07,0-.1-.01-.15-.02.08-.04.2-.06.4l.07-.25Z"/><path class="d" d="M240.22,287.36c0,.06.03.09.02.18,0-.05-.01-.13-.02-.18Z"/><path class="d" d="M252.41,292.79c-.18-.03-.3,1.02-.47,1.18v-.6s-.09.3-.09.3c-.08.19,0-.15.01-.23-.11.45-.15.08-.23.12l.12-.38c.08-1.02-.51.84-.51.28l.08-.72-.17.57c.04-.37.14-.83,0-.68-.57.85-.58-.58-1.05-.11.03-.12.05-.15.1-.23-.64,1.3-.05-1.73-.58-.73l-.04.23c-.1-.18-.04.23-.21.5.16-.72-.02-.64-.03-.94-.03.15,0,.15,0,.26-.05.15-.16.57-.17.42.18-1.06-.02-1.05-.07-1.43-.13.46-.34.81-.59,1.53.03-.17.1-.55.16-.91-.12.28-.1.03-.06-.27.04.03.07.06.09.09v-.05s.01.05.01.07c.02.04.03.07.01.11.16-.42.09-.36.22-.9-.05,0-.09-.24-.2.17-.03,0-.06.05-.1.11,0-.09,0-.15-.03-.11v.06c-.03.07-.04.12-.06.17-.14.19-.05-.69-.03-1.1-.1.72-.21.76-.33,1.26,0-.04.09-.03.2.02-.02.05-.05.14-.09.31-.22.48-.04-.55-.26-.25,0,.06-.02.18-.07.36-.08.12-.03-.3.04-.61-.13.48-.32.78-.31.54.05-.42.11-.61.02-.61l-.05.36c-.14.21,0-.36-.07-.31,0,.06-.05.26-.08.31-.05-.24,0-.43.09-1.16l-.12.55c0-.37,0-1.11-.18-.38.3-1.11-.04-.68-.12-.7.02.05-.04.28-.06.41.03-.82-.3-.18-.45-.28l-.22.81c-.07-.07.28-1.71.19-1.71l-.06.41c-.13-.21-.2-.17-.36-.1l-.12.55c.01-.28-.04-.3-.03-.59-.41,1.29-.25-.91-.78.49l.22-1.04c-.08-.01-.13-.27-.33.49h.02c-.17.78-.08-.03-.16.13-.02-.1.06-.63.13-.78-.31.43-.48-.25-.8.63-.12-.43-.1-1.32-.33-1.31l-.02.12c-.1.11-.3.32-.48,1.19-.11-.27.03-1.5-.23-1.2l-.03.35c-.08.15-.07-.3-.07-.41-.02.01-.04.19-.06.31-.1.28-.04-.2-.06-.3l-.04.3c-.26.53-.27-.74-.49-.67.02.1-.06.43-.1.56.1-1.01-.16-.86-.2-1.12l-.02.4c-.05-.7-.31.98-.36.27l.19-.53c-.09.14-.12-.07-.03-.5-.13.3-.13.74-.26.8-.05.27.05.22-.05.56l-.27.67h0s0,0,0,0c-.02.07-.04.08-.07-.01.21-1.22-.12-.11.15-1.27-.21-.17-.52.58-.63-.05-.24,1.17-.39-.07-.57,1.48-.11-.01-.15-.34-.15-.99.01-.05.02-.04.03,0-.03-.22-.1-.33-.14-.33.03.37.11.7.09,1.31-.08-.17-.15-.79-.18-1l-.11.79c-.02-.61-.14.63-.13-.18l.04-.24c-.16.03-.08-.77-.22-.91l-.02.32c-.06.12-.07-.65-.18.07l.09.05c-.06.56-.15.79-.2,1.07-.08-.17.04-.93,0-1.01-.06.52-.03.28-.03.81-.09-.21-.22-.45-.27-1.14-.01.08-.01.2-.01.2-.12.08-.18-.89-.28-.45l.02.08c-.13.76-.23-.76-.29.57-.05.25.1-.05.01.6-.15.41-.06-1.12-.2-.75.02-.04.01.04.01.16-.09-.03-.21-.17-.31-.31-.11,1.09-.34-.27-.47.99.04-.45-.03-.52-.03-.72,0,0,0,.12,0,.2-.05.03-.05-.39-.07-.57-.04.39-.13-.42-.15-.16,0-.28-.04-.21-.08-.2.08.32.03.6.06,1.04-.13.14-.14-1.24-.27-1.02l-.07.53c-.01-.81-.14-.48-.13-.78-.02.25-.06.4-.05.81-.05-.2-.13.22-.15-.26l.05-.21c-.16.31-.26-.86-.38-.32v1.21s0,0,0,0c0-.05,0-.09-.02-.19,0,.16-.02.25-.03.3-.04-.03-.09-.33-.13-.28-.01-.04-.02-.05-.03-.05,0-.07,0-.14-.02-.26,0-.05,0-.08,0-.14.03.01.06.14.1.19,0,.03,0,.05.01.09,0-.02,0-.05,0-.07,0,0,0,0,0,0v-.03c0-.11-.01-.26-.01-.36-.01.07-.02.11-.02.16l-.08-.48.17.34c-.07-.48-.07-.36-.04-.85-.11-.39-.11.58-.21.11-.04.17,0,.61-.04.85-.09-.43-.17.87-.23.23-.02.13.04.04.03.32-.06-.11-.1-.07-.12-.43l.05-.13s-.05-.46-.13-.18c-.05-.28-.08-.88-.02-.89-.02-.08-.07.25-.05.61-.13.02-.06-1.3-.19-.72,0,.04.02.1.01.17-.03.09-.06.09-.08.01.11.1-.03.97.1.75,0,.22-.02.28-.04.31v-.05s-.03.04-.04.07c-.02-.02-.05-.05-.07.05-.06-.44,0-.93-.04-1.25,0,.2-.03.21-.06.29l.03-.49s-.05,0-.08-.11l.05.2c-.06.09-.15.87-.25.4.03.2.08.59.01.85-.11-.31-.03.19-.09.56,0,0,0,0,0-.01-.01-.02-.02-.05-.02-.08-.02-.16,0-.44-.04-.58,0,.07-.01.11-.02.13-.01-.08-.04-.12-.09-.01-.02,0,0-.28.02-.42-.11.24-.17-.11-.28.25.05-.13.08-.29.02-.53.03.4-.09.37-.13.62v-.24c-.04.26,0,.37.02.46,0-.08,0-.16.03-.14.04.14.04.69,0,1-.04-.03-.07-.09-.11-.15-.02-.27-.01-.6,0-.76-.12.26-.11-1.12-.23-.74-.03,0-.11.98-.2,1.08-.04-.56.1-.42.06-.9-.05.53-.11.53-.16.38v-.15s-.01.07-.01.11c-.09-.27-.19-.87-.29-.37l.02.48c-.02-.18-.05-.23-.09-.19-.03-.04-.07.01-.09.19l.02-.48c-.11-.5-.2.1-.29.37,0-.04,0-.09-.01-.11v.15c-.05.15-.11.15-.16-.38-.05.48.1.34.06.9-.08-.09-.17-1.07-.2-1.08-.11-.38-.11,1-.23.74,0,.16.02.48,0,.76-.04.06-.07.12-.11.15-.04-.31-.04-.86,0-1,.02-.02.03.06.03.14.03-.09.06-.19.03-.46v.24c-.05-.25-.17-.22-.14-.62-.06.23-.03.4.02.53-.11-.35-.17-.01-.28-.25.02.13.03.42.02.42-.06-.1-.08-.06-.09.01,0-.02-.02-.06-.02-.13-.04.14-.02.42-.04.58,0,.03-.01.06-.02.08,0,0,0,0,0,.01-.06-.37.02-.87-.09-.56-.07-.25-.01-.65.01-.85-.1.47-.19-.31-.25-.4l.05-.2c-.03.12-.06.11-.08.11l.03.49c-.03-.08-.06-.09-.06-.29-.03.32.02.81-.04,1.25-.02-.1-.04-.07-.07-.05-.01-.03-.03-.06-.04-.07v.05s-.03-.1-.03-.31c.13.22-.01-.65.1-.75-.02.08-.05.07-.08-.01,0-.07,0-.13.01-.17-.13-.58-.06.73-.19.72.02-.36-.03-.69-.05-.61.05,0,.03.61-.02.89-.08-.28-.09.21-.13.18l.05.13c-.02.36-.06.32-.12.43,0-.28.05-.2.03-.32-.06.64-.15-.66-.23-.23-.04-.25,0-.69-.04-.85-.1.47-.11-.5-.21-.11.03.49.04.37-.04.85l.17-.34-.08.48s0-.09-.02-.16c0,.1-.02.24,0,.36v.03s0,0,0,0c0,.02,0,.05,0,.07,0-.04,0-.06.01-.09.04-.06.07-.18.1-.19,0,.06,0,.09,0,.14-.02.12-.02.19-.02.26,0,0-.02.02-.03.05-.04-.05-.08.26-.13.28-.01-.05-.02-.14-.03-.3-.01.09-.02.14-.02.19,0,0,0,0,0,0v-1.21c-.12-.54-.22.62-.38.32l.05.21c-.02.48-.1.07-.15.26,0-.41-.03-.55-.05-.81,0,.3-.12-.03-.13.78l-.07-.53c-.13-.22-.15,1.16-.27,1.02.04-.44-.02-.73.06-1.04-.04,0-.08-.08-.08.2-.02-.25-.12.55-.15.16-.02.18-.02.6-.07.57,0-.08,0-.2,0-.2,0,.2-.07.27-.03.72-.13-1.27-.36.09-.47-.99-.09.14-.22.27-.31.31,0-.12,0-.2.01-.16-.14-.37-.05,1.17-.2.75-.09-.65.06-.36.01-.6-.06-1.33-.17.19-.29-.57l.02-.08c-.1-.44-.16.53-.28.45,0,0,0-.12-.01-.2-.04.69-.17.93-.27,1.14,0-.53.03-.28-.03-.81-.04.08.08.84,0,1.01-.05-.28-.15-.51-.2-1.07l.09-.05c-.11-.72-.12.05-.18-.07l-.02-.32c-.14.13-.06.93-.22.91l.04.24c0,.81-.12-.43-.13.18l-.11-.79c-.03.21-.1.82-.18,1-.02-.61.06-.94.09-1.31-.04,0-.11.11-.14.33,0-.03.02-.04.03,0,0,.65-.04.98-.15.99-.18-1.55-.33-.31-.57-1.48-.11.63-.42-.13-.63.05.27,1.16-.06.06.15,1.27-.04.09-.06.08-.07.01,0,0,0,0,0-.01h0s-.27-.67-.27-.67c-.1-.34,0-.29-.05-.56-.13-.05-.13-.5-.26-.8.09.43.06.64-.03.5l.19.53c-.05.71-.31-.97-.36-.27l-.02-.4c-.04.26-.3.11-.2,1.12-.04-.13-.12-.46-.1-.56-.22-.07-.23,1.2-.49.67l-.04-.3c-.02.1.05.58-.06.3-.02-.12-.04-.3-.06-.31,0,.11,0,.56-.07.41l-.03-.35c-.26-.31-.12.93-.23,1.2-.18-.87-.38-1.08-.48-1.19l-.02-.12c-.24,0-.21.88-.33,1.31-.32-.88-.49-.2-.8-.63.06.14.14.67.13.78-.08-.15,0,.66-.16-.13h.02c-.21-.75-.25-.5-.33-.48l.22,1.04c-.53-1.41-.37.8-.78-.49.01.28-.04.31-.03.59l-.12-.55c-.16-.08-.24-.11-.36.1l-.06-.41c-.1,0,.26,1.64.19,1.71l-.22-.81c-.15.09-.47-.55-.45.28-.03-.12-.08-.36-.06-.41-.08.02-.41-.41-.12.7-.18-.73-.17.01-.18.38l-.12-.55c.1.73.14.91.09,1.16-.03-.04-.08-.25-.08-.31-.07-.04.07.53-.07.31l-.05-.36c-.09,0-.04.18.02.61,0,.24-.18-.06-.31-.54.06.3.12.72.04.61-.05-.18-.06-.3-.07-.36-.22-.3-.04.73-.26.25-.05-.18-.07-.26-.09-.31.11-.04.2-.06.2-.02-.12-.5-.23-.54-.33-1.26.02.41.11,1.28-.03,1.1-.01-.05-.03-.09-.05-.17v-.06s-.04.02-.04.11c-.05-.07-.08-.12-.1-.11-.11-.4-.15-.17-.2-.17.14.54.06.48.22.9-.02-.03,0-.07.01-.11,0-.02,0-.03,0-.07v.05s.07-.06.1-.09c.04.29.06.54-.06.27.06.36.13.73.16.91-.24-.72-.46-1.07-.59-1.53-.05.37-.25.37-.07,1.43,0,.15-.11-.27-.17-.42,0-.11.02-.11,0-.26,0,.3-.19.22-.03.94-.17-.27-.11-.68-.21-.5l-.04-.23c-.53-1,.06,2.03-.58.73.04.08.06.11.1.23-.47-.47-.48.96-1.05.11-.14-.16-.03.3,0,.68l-.17-.57.08.72c0,.56-.59-1.3-.51-.28l.12.38c-.08-.04-.12.33-.23-.12.01.07.09.42.01.23l-.08-.3v.6c-.18-.16-.3-1.21-.48-1.18-.03.15.06.98.13,1.17.03,0,.11.15.19.46v.19c.21.9.4,1.84.7,2.38l-.05-.6.14.42-.07.07c.15.38.09,0,.05-.26.07.23.12.38.16.46l-.13-.91c.1.34.14.72.25.88-.06-.42-.24-.76-.24-1.06.15.38.22.72.19.34.07.23.09.38.1.49-.02-.3.09-.19,0-.68.18.47.12-.22.34.63-.04-.21-.09-.71-.05-.77.18,1.06.18-.03.43,1.07-.18-.94.11-.52.08-1.09.01.08.04.23.02.19.08.04.16.31.25.46-.19-.76-.14-.98-.21-1.47.26.69.18.91.38,1.59-.16-.61-.03-.68-.19-1.17.17.42.1.19.29.8-.23-.95,0-.19-.09-.79.2.42.25.87.26.54.11.27.12.64.12.64.09-.03-.14-.72-.22-1.14.05-.26.18.5.31.84.02-.22-.1-.9-.04-.9.03.11.05.15.08.31-.07-.6.2-.14.1-.9.02.06.04.12.06.17-.1-.35-.2-.71-.26-.97.04-.03-.04-.49.09-.03-.03,0,.02.19.04.34v-.22c.2.65,0,.26.12.76.03-.26-.02-.87.09-.71.18.65-.09.3.14.84l-.16-.2c.33.99-.08-.04.27,1.03.17.12.06-.41.23-.29-.06-.38-.14-.53-.21-.91.01-.75.55,1.57.47.62-.08-.45-.27-1.29-.07-.9l.15.76c.14,0-.2-1.1.06-.67.05.3-.03.3,0,.38.23.54-.05-.45.02-.49l.18.65c.1-.17.13-.73.24-.92.04.2.07.42.15.6.1-.43.41-.13.67.17l-.07-.6s.09.24.1.36c.12.18-.08-.36-.11-.6.03-.06.13.3.15.48,0-.55.09-1.22.36-.68l.02.18c.15.18-.17-1.22.05-.74v.11c.28.13.39-.51.76.26-.16-.84.3.26.04-.89.25.51.27.73.53,1.02.06.03-.1-.75-.07-.9l.14.6-.07-.67.2.7.02-.18s-.11-.25-.14-.42c.02-.31.3.32.37.62l.08-.6c.05.24.04.34.04.51-.03-.66.16.62.13.02-.04-.13-.07-.36-.1-.48.13.34.24.29.28.1l.08.42c.17.04.26-.35.43-.42-.1-.17-.24-.89-.21-.99l.16.63c-.05-.41-.1-.22-.14-.73.08.05.2.71.21.93l.03-.26c.05.19.05.3.1.54-.05-.41.26.58.16-.13l.04.19c.16-.07.19-.32.32-.42-.11-.55-.03-.46-.09-.92.13.13.33.52.44.42.03-.31-.07-.48-.1-.82.11.5.21.4.23.79.12-.14.16-.18.26-.67-.06-.2-.1-.28-.12-.46.02-.1.12.18.16.43v.06c.06-.84.73,1.3.7.17v.06s.07-.62.07-.62c.09.06.02.4.13.69.03-.91.3.02.35-.6.35,1.47.38-.25.67.68l-.06-.36c-.01-.36.08.19.12.26-.04-.28-.09-.31-.09-.51.27-.54.74.33,1.08.59.12.08-.11-1.89.12-1.05l.02.68c.17-.86.47-.05.66-.77,0,.16,0,.36-.02.36.07.48.17.01.16-.39.04.04.02.36.05.57.05.29.1-.63.13-.14,0,.08-.01.16-.02.2.03-.24.14.05.1-.51.08.27.18-.26.26.08.05-.64.17.31.19-.59,0,.93.18.75.24.31-.02.28.06.29.03.68.07-.01.14-.19.13-.66.13,1.11.27-.89.34.53.17-.39.33-.66.48-.87,0,.04,0,.08,0,.12,0-.06,0-.09,0-.13.03-.04.06-.09.09-.13.01.03.02.04.03.03-.02.78-.21.05-.2.99.18-.38.29-1.18.47-.95.05.13-.03.4-.04.56.18-.38.36.08.52-.42,0,.09-.02.18-.03.25.03-.03.08.14.07-.28l-.03.11c-.05-.59.11-1.21.13-1.55,0,.02,0,.04,0,.06-.03,1.01.16.25.08,1.72.02-.08.05-.28.04-.56.03.08.04.25,0,.57.12-.23.07-.68.18-.67,0,.2-.02.28-.03.52.05-.4.11-.8.19-.62,0,.12,0,.28-.02.28.08-.03.14-.3.21-.51.06.1.13.08.19-.2,0,.01.02.02.03.04-.05.89.06.29.07,1.06l.09-.23-.04-.37s.09-.17.13-.28c.01-.02.03-.04.04-.07.02,0,.03,0,.05.05l-.06.32.15-.15-.08-.29s.01-.1.02-.15c.13.3.24.59.33.49,0,.02,0,.06,0,.07,0-.04,0-.04.01-.08,0,0,0,0,0,0,0,.04,0,0,0-.04.04-.34.13-.25.18-.54,0,.03,0,.04,0,.07l-.03.09s.03,0,.05,0c0,.12,0,.24,0,.28l.02-.27s.03,0,.05,0c0,.08,0,.17,0,.31.04.04.05-.1.04-.26.09.13.18.35.27.52v.06s.01-.05.01-.05c.02.03.04.06.05.08,0,.02,0,.03,0,.05,0,0,.01-.02.02-.02,0,0,.01.02.02.02,0-.02,0-.03,0-.05.02-.02.04-.05.05-.08v.05s.01-.06.01-.06c.09-.16.18-.39.27-.52,0,.16,0,.29.04.26,0-.15,0-.24,0-.31.02-.02.03,0,.05,0l.02.27s0-.15,0-.28c.02,0,.03-.02.05,0l-.03-.09s0-.04,0-.07c.06.29.14.2.18.54,0,.05,0,.08,0,.04,0,0,0,0,0,0,0,.03,0,.04.01.08,0-.02,0-.05,0-.07.1.1.2-.19.33-.49,0,.05,0,.11.02.15l-.08.29.15.15-.06-.32c.02-.06.03-.06.05-.05.01.03.03.06.04.07.04.11.08.28.13.28l-.04.37.09.23c0-.77.11-.17.07-1.06,0-.02.02-.02.03-.04.07.28.13.31.19.2.07.21.13.48.21.51-.03,0-.02-.16-.02-.28.09-.17.14.23.19.62-.01-.24-.03-.32-.03-.52.1,0,.06.44.18.67-.03-.32-.02-.49,0-.57,0,.28.02.48.04.56-.08-1.47.11-.71.08-1.72,0-.02,0-.04,0-.06.02.34.18.96.13,1.55l-.03-.11c0,.42.04.25.07.28-.02-.07-.03-.16-.03-.25.16.5.34.04.52.42-.02-.16-.09-.43-.04-.56.18-.22.29.57.47.95,0-.94-.18-.21-.2-.99,0,.01.02,0,.03-.03.03.03.06.09.09.13,0,.04,0,.07,0,.13.02-.03,0-.08,0-.12.15.21.31.48.48.87.08-1.42.21.58.34-.53-.01.48.05.65.13.66-.02-.39.05-.4.03-.68.06.44.25.62.24-.31.02.9.14-.04.19.59.08-.34.18.19.26-.08-.03.57.08.27.1.51,0-.04-.02-.12-.02-.2.03-.49.08.43.13.14.03-.2,0-.52.05-.57,0,.4.09.87.16.39-.02,0-.01-.2-.02-.36.19.72.49-.1.66.77l.02-.68c.23-.84,0,1.13.12,1.05.34-.26.81-1.13,1.08-.59,0,.2-.05.23-.09.51.04-.07.13-.63.12-.26l-.06.36c.29-.93.32.79.67-.68.05.62.32-.32.35.6.11-.29.04-.63.13-.69l.07.62v-.06c-.03,1.12.64-1.02.7-.17v-.06c.04-.25.14-.52.16-.43-.02.18-.06.26-.12.46.1.49.13.52.26.67.01-.39.12-.29.23-.79-.03.35-.13.51-.1.82.11.1.3-.29.44-.42-.05.47.03.37-.09.92.13.09.15.35.32.42l.04-.19c-.1.71.21-.28.16.13.05-.24.05-.35.1-.54l.03.26c0-.22.13-.88.21-.93-.04.51-.09.32-.14.73l.16-.63c.03.09-.11.82-.21.99.16.07.26.45.43.42l.08-.42c.05.19.16.24.28-.1-.02.12-.05.35-.1.48-.03.61.16-.68.13-.02,0-.17,0-.27.04-.51l.08.6c.07-.31.35-.94.37-.62-.04.17-.11.4-.14.42l.02.18.2-.7-.07.67.14-.6c.03.15-.13.93-.07.9.26-.3.27-.52.53-1.02-.25,1.15.2.06.04.89.37-.78.48-.13.75-.26v-.11c.23-.48-.1.92.06.74l.02-.18c.27-.54.36.13.36.68.02-.18.12-.54.15-.48-.02.24-.23.78-.11.6.01-.12.08-.36.1-.36l-.07.6c.27-.3.57-.59.67-.17.08-.18.11-.4.15-.6.11.2.14.75.24.92l.18-.65c.06.03-.21,1.03.02.49.04-.08-.04-.07,0-.38.25-.43-.08.68.06.67l.15-.76c.2-.39,0,.45-.07.9-.09.94.45-1.38.47-.62-.06.38-.14.53-.21.91.17-.12.06.41.23.29.35-1.07-.06-.04.27-1.03l-.16.2c.23-.54-.04-.19.14-.84.11-.15.06.45.09.71.13-.49-.08-.11.13-.76v.22c.02-.15.06-.34.03-.34.13-.46.06,0,.09.03-.06.26-.16.62-.26.97.02-.05.04-.11.06-.17-.1.75.17.29.1.9.03-.15.05-.19.08-.31.06,0-.06.68-.04.9.13-.34.26-1.1.31-.84-.09.42-.31,1.1-.22,1.14,0,0,0-.38.12-.64.01.33.06-.12.26-.54-.1.6.14-.16-.09.79.19-.61.12-.38.29-.8-.15.49-.03.56-.19,1.17.2-.69.13-.91.38-1.59-.07.49-.02.71-.21,1.47.08-.15.17-.42.25-.46-.02.04,0-.11.02-.19-.03.56.25.14.08,1.09.26-1.1.25,0,.43-1.07.03.06-.02.56-.05.77.21-.85.16-.15.34-.63-.1.49.02.37,0,.68,0-.11.03-.27.1-.49-.04.38.04.04.19-.34,0,.3-.18.64-.24,1.06.11-.16.15-.53.25-.88l-.13.91c.04-.08.1-.23.16-.46-.03.27-.1.64.05.26l-.07-.07.14-.42-.05.6c.3-.55.49-1.49.71-2.38v-.19c.07-.3.15-.46.18-.46.08-.19.16-1.02.13-1.17ZM248.85,290.33c-.01.07-.04.17-.06.28v-.07s0-.07-.02-.09c.03-.11.07-.21.08-.12ZM217.4,290.61c-.02-.11-.04-.2-.06-.28,0-.09.04,0,.08.12-.01.02-.02.04-.03.09v.07ZM218.44,294.06s.02-.03.03-.06h0s-.03.05-.03.06ZM218.56,293.91c-.05-.18-.09-.38-.07-.38.02.13.09.22.15.36-.03,0-.05,0-.08.02ZM235.92,287.02s0,.03,0,.06c0-.02,0-.03,0-.06,0-.01.01,0,.02,0ZM233.1,290.08s-.07-.03-.05-.49c.02-.03.03-.03.05-.03.02,0,.03,0,.05.03.02.46-.02.44-.05.49ZM233.19,287.21s0,0,0,0c0-.04,0-.08,0-.11v.11ZM233.1,286.99l.04.24s-.03.02-.04.02c-.01,0-.03,0-.04-.02l.04-.24ZM233.01,287.1s0,.07,0,.11c0,0,0,0,0,0v-.11ZM230.28,287.02s.01-.01.02,0c0,.03,0,.04,0,.06,0-.03,0-.06,0-.06ZM232.41,289.63s0,.02,0,.03c0,.02,0,.04,0,.06,0-.03,0-.07,0-.09ZM233.78,289.72s0-.04,0-.06c0-.01,0-.01,0-.03,0,.01,0,.05,0,.09ZM247.63,293.91s-.05-.03-.08-.02c.06-.14.13-.23.15-.36.02,0-.02.2-.07.38ZM247.72,294.01h0s.03.04.03.05c0-.01-.02-.03-.03-.05Z"/><path class="d" d="M247.59,290.66s.01,0,.02,0c0-.02,0-.02-.02,0Z"/><path class="d" d="M248.68,291.23s.03-.07.05-.11c0,0,0-.03,0-.05v-.02s-.05.18-.05.18Z"/><polygon class="d" points="244.94 293.68 244.95 293.55 244.92 293.69 244.94 293.68"/><path class="d" d="M235.53,290.87s-.01-.03-.01-.03c.02.09.04.14.01.03Z"/><polygon class="d" points="237.32 291.53 237.31 291.53 237.31 291.54 237.32 291.53"/><polygon class="d" points="233.56 286.4 233.49 286.2 233.51 286.28 233.56 286.4"/><path class="d" d="M237.81,286.47c-.05-.2-.05.53-.01.65v-.65Z"/><path class="d" d="M239.94,287.17c0-.32-.08-.13-.13.18.01.09.08-.15.13-.18Z"/><polygon class="d" points="245.58 288.31 245.57 288.54 245.61 288.52 245.58 288.31"/><path class="d" d="M231.72,286.55s.01.03.02.05c0-.06-.02-.1-.02-.05Z"/><polygon class="d" points="214.09 294.64 214.09 294.6 214.02 294.3 214.09 294.64"/><path class="d" d="M224.73,288.21c-.05-.22-.04-.91-.18-1.21.15.48-.01.69.18,1.21Z"/><path class="d" d="M228.9,286.97s-.02-.12-.04-.05c0,.03,0,.05,0,.07,0-.08.02-.12.04-.02Z"/><path class="d" d="M228.28,286.98s0,.08.01.12l.02-.03-.03-.09Z"/><path class="d" d="M217.26,295.61c-.05-.15-.1-.31-.15-.47.11.38.06.56.15.47Z"/><path class="d" d="M228.48,291.53c-.02-.2-.04-.32-.06-.4,0,.05,0,.08-.01.15l.07.25Z"/><path class="d" d="M218.59,290.65s0-.02.02,0c-.02-.03-.02-.03-.02,0Z"/><path class="d" d="M225.97,287.36s-.02.13-.02.18c0-.09.02-.11.02-.18Z"/><path class="d" d="M217.47,291.07s0,.05,0,.05c.02.04.03.08.05.11l-.03-.18v.02Z"/><polygon class="d" points="221.27 293.69 221.24 293.55 221.25 293.68 221.27 293.69"/><path class="d" d="M230.68,290.84s0,.01-.01.03c-.03.11,0,.07.01-.03Z"/><polygon class="d" points="228.89 291.54 228.89 291.53 228.88 291.53 228.89 291.54"/><polygon class="d" points="232.71 286.2 232.63 286.4 232.69 286.28 232.71 286.2"/><path class="d" d="M228.39,286.47v.65c.05-.12.05-.84,0-.65Z"/><path class="d" d="M226.39,287.36c-.05-.32-.13-.51-.13-.18.05.03.12.27.13.18Z"/><polygon class="d" points="220.61 288.31 220.58 288.52 220.62 288.54 220.61 288.31"/></svg>